<?xml version="1.0" encoding="UTF-8" ?>
<!DOCTYPE svg PUBLIC "-//W3C//DTD SVG 1.1//EN" "http://www.w3.org/Graphics/SVG/1.1/DTD/svg11.dtd">
<svg width="1536pt" height="1024pt" viewBox="0 0 1536 1024" version="1.1" xmlns="http://www.w3.org/2000/svg">
<g id="#ef9f01fb">
<path fill="#ef9f01" opacity="1.00" d=" M 353.20 345.14 C 360.62 338.77 370.33 335.60 379.91 334.25 C 387.28 333.93 394.84 333.60 401.98 335.90 C 410.63 338.60 418.92 343.16 425.23 349.75 C 426.27 350.90 427.54 351.99 427.95 353.58 C 423.58 351.33 421.02 346.74 416.53 344.66 C 410.53 342.01 404.89 338.10 398.16 337.62 C 386.34 334.92 373.31 336.31 362.99 342.95 C 357.82 345.18 354.03 349.39 350.16 353.31 C 350.55 350.38 351.69 347.65 353.20 345.14 Z" />
</g>
<g id="#fdd000fe">
<path fill="#fdd000" opacity="1.00" d=" M 362.99 342.95 C 373.31 336.31 386.34 334.92 398.16 337.62 C 404.89 338.10 410.53 342.01 416.53 344.66 C 421.02 346.74 423.58 351.33 427.95 353.58 L 428.02 353.80 C 429.11 357.43 431.90 360.20 433.35 363.67 C 435.57 368.88 437.95 374.24 437.79 380.03 C 439.37 391.91 436.79 404.35 430.29 414.46 C 424.51 414.05 418.82 417.27 413.10 414.97 C 421.41 409.23 424.97 399.27 427.43 389.92 C 428.22 382.90 428.22 375.46 425.07 368.97 C 423.05 364.84 421.05 360.45 417.53 357.38 C 412.49 353.98 408.05 349.31 401.88 348.03 C 396.66 346.94 391.39 344.68 386.00 345.87 C 381.09 346.56 376.00 347.03 371.67 349.68 C 363.50 353.49 357.53 360.86 353.90 368.96 C 349.78 378.37 350.56 389.23 354.14 398.68 C 354.11 400.85 354.72 402.92 355.39 404.96 C 355.23 406.64 353.33 407.23 352.18 408.12 C 351.20 406.68 350.20 405.26 349.11 403.90 C 350.11 410.22 353.45 415.87 356.58 421.34 C 357.71 423.67 360.45 425.78 359.44 428.63 C 348.45 413.54 341.73 394.86 342.59 376.06 C 342.70 372.62 343.48 369.25 344.25 365.91 C 346.03 361.62 347.79 357.31 350.16 353.31 C 354.03 349.39 357.82 345.18 362.99 342.95 Z" />
</g>
<g id="#cd8108fd">
<path fill="#cd8108" opacity="1.00" d=" M 335.62 370.69 C 338.32 360.53 344.68 351.28 353.20 345.14 C 351.69 347.65 350.55 350.38 350.16 353.31 C 347.79 357.31 346.03 361.62 344.25 365.91 C 341.89 368.96 341.95 372.97 341.19 376.59 C 340.20 378.99 339.20 381.40 338.50 383.92 C 337.94 379.41 335.71 375.28 335.62 370.69 Z" />
<path fill="#cd8108" opacity="1.00" d=" M 428.02 353.80 L 427.83 353.10 C 434.01 359.99 437.17 369.00 438.91 377.95 C 439.17 383.00 439.21 388.07 438.97 393.13 C 437.81 402.39 434.30 411.30 428.93 418.94 C 425.34 423.79 422.10 429.02 417.54 433.05 C 418.50 430.11 420.78 427.96 422.69 425.63 C 425.59 422.17 427.92 418.29 430.29 414.46 C 436.79 404.35 439.37 391.91 437.79 380.03 C 437.95 374.24 435.57 368.88 433.35 363.67 C 431.90 360.20 429.11 357.43 428.02 353.80 Z" />
</g>
<g id="#d88204ff">
<path fill="#d88204" opacity="1.00" d=" M 371.67 349.68 C 376.00 347.03 381.09 346.56 386.00 345.87 C 391.39 344.68 396.66 346.94 401.88 348.03 C 408.05 349.31 412.49 353.98 417.53 357.38 C 421.05 360.45 423.05 364.84 425.07 368.97 C 428.22 375.46 428.22 382.90 427.43 389.92 C 424.97 399.27 421.41 409.23 413.10 414.97 C 406.54 420.09 398.47 423.71 390.03 423.55 C 378.87 423.94 368.64 417.69 361.30 409.72 C 358.29 406.47 356.40 402.43 354.14 398.68 C 350.56 389.23 349.78 378.37 353.90 368.96 C 357.53 360.86 363.50 353.49 371.67 349.68 M 381.22 348.34 C 369.32 350.59 358.96 359.62 354.89 371.02 C 349.24 385.98 354.69 404.13 367.44 413.74 C 376.12 420.92 388.24 423.11 399.07 420.51 C 416.88 415.89 429.32 396.10 425.17 378.06 C 421.44 358.61 400.67 344.63 381.22 348.34 Z" />
</g>
<g id="#bba246f1">
<path fill="#bba246" opacity="0.95" d=" M 388.95 355.92 C 389.11 356.28 389.42 356.99 389.58 357.35 C 393.27 358.49 391.72 363.22 388.59 364.04 C 387.22 361.38 387.76 358.53 388.95 355.92 Z" />
</g>
<g id="#455b5ffa">
<path fill="#455b5f" opacity="0.98" d=" M 369.24 367.34 C 369.80 366.44 370.37 365.54 370.94 364.64 C 375.33 366.98 377.62 371.55 381.14 374.86 C 384.52 378.16 387.29 382.03 390.73 385.26 C 394.45 387.98 398.86 385.37 402.91 385.36 C 407.11 385.31 411.48 385.23 415.51 386.54 C 415.65 387.15 415.95 388.39 416.09 389.01 C 413.37 389.42 410.05 388.53 407.85 390.56 C 408.66 390.78 410.28 391.22 411.09 391.45 C 403.29 391.95 395.43 391.96 387.72 393.39 C 383.95 389.64 381.25 385.00 377.84 380.95 C 374.73 376.59 370.41 372.77 369.24 367.34 Z" />
</g>
<g id="#90530bfe">
<path fill="#90530b" opacity="1.00" d=" M 341.19 376.59 C 341.95 372.97 341.89 368.96 344.25 365.91 C 343.48 369.25 342.70 372.62 342.59 376.06 C 341.73 394.86 348.45 413.54 359.44 428.63 C 363.83 435.07 368.82 441.13 374.42 446.57 C 378.14 449.89 381.81 453.28 385.30 456.85 C 386.54 457.89 386.59 459.62 387.48 460.89 C 388.06 461.21 389.23 461.85 389.81 462.17 C 388.70 462.58 387.57 462.94 386.46 463.35 C 385.48 462.84 384.52 462.35 383.54 461.87 C 378.34 457.92 373.64 453.33 368.05 449.92 C 364.66 447.92 361.69 444.94 357.65 444.32 C 354.39 443.73 351.42 441.82 348.03 442.02 C 342.62 441.96 337.25 441.18 331.96 440.11 C 332.14 439.78 332.51 439.12 332.69 438.79 C 337.09 439.02 341.39 440.40 345.84 439.92 C 347.97 440.10 350.09 440.38 352.21 440.75 C 354.31 441.72 356.51 442.48 358.75 443.11 C 357.67 437.21 353.49 432.57 349.01 428.88 C 343.08 420.90 337.39 412.28 335.33 402.39 C 336.67 404.05 337.95 405.77 339.05 407.61 C 340.37 415.80 347.80 420.82 351.32 427.95 C 354.65 427.97 356.59 431.52 359.76 432.30 C 356.19 427.10 352.90 421.71 349.91 416.16 C 347.48 411.56 346.15 406.50 344.47 401.60 C 341.63 393.59 341.56 384.98 341.19 376.59 Z" />
<path fill="#90530b" opacity="1.00" d=" M 359.51 388.34 C 358.90 383.69 365.80 382.45 367.18 386.79 C 364.70 386.85 362.21 387.03 359.76 387.38 C 360.90 387.91 362.06 388.42 363.24 388.88 C 361.99 388.70 360.75 388.53 359.51 388.34 Z" />
</g>
<g id="#b7710bfd">
<path fill="#b7710b" opacity="1.00" d=" M 335.33 402.39 C 332.75 392.09 332.54 380.91 335.62 370.69 C 335.71 375.28 337.94 379.41 338.50 383.92 C 339.20 381.40 340.20 378.99 341.19 376.59 C 341.56 384.98 341.63 393.59 344.47 401.60 C 346.15 406.50 347.48 411.56 349.91 416.16 C 348.46 415.85 346.93 415.81 345.57 415.19 C 343.26 412.78 341.55 409.85 339.05 407.61 C 337.95 405.77 336.67 404.05 335.33 402.39 Z" />
</g>
<g id="#d48f30fe">
<path fill="#d48f30" opacity="1.00" d=" M 359.76 387.38 C 362.21 387.03 364.70 386.85 367.18 386.79 C 367.18 389.12 364.93 389.01 363.24 388.88 C 362.06 388.42 360.90 387.91 359.76 387.38 Z" />
<path fill="#d48f30" opacity="1.00" d=" M 347.03 455.40 C 350.33 456.07 353.65 456.71 357.03 456.85 C 366.10 457.03 374.63 460.67 383.54 461.87 C 384.52 462.35 385.48 462.84 386.46 463.35 C 386.14 463.47 385.51 463.70 385.19 463.81 C 379.41 466.13 373.02 466.51 367.43 469.39 C 365.33 470.12 363.28 471.36 361.00 471.34 C 358.04 470.99 355.25 469.84 352.62 468.51 C 349.61 466.81 346.40 464.96 342.80 465.41 C 340.61 465.80 338.80 464.53 337.08 463.39 C 334.75 463.55 332.41 463.66 330.08 463.72 C 332.75 462.88 335.39 461.88 337.66 460.20 C 341.47 457.99 345.96 458.37 350.18 458.26 C 349.14 457.28 348.11 456.31 347.03 455.40 Z" />
</g>
<g id="#334346e9">
<path fill="#334346" opacity="0.91" d=" M 407.85 390.56 C 410.05 388.53 413.37 389.42 416.09 389.01 C 414.97 390.71 413.13 391.62 411.09 391.45 C 410.28 391.22 408.66 390.78 407.85 390.56 Z" />
</g>
<g id="#fdca00fe">
<path fill="#fdca00" opacity="1.00" d=" M 354.14 398.68 C 356.40 402.43 358.29 406.47 361.30 409.72 C 368.64 417.69 378.87 423.94 390.03 423.55 C 398.47 423.71 406.54 420.09 413.10 414.97 C 418.82 417.27 424.51 414.05 430.29 414.46 C 427.92 418.29 425.59 422.17 422.69 425.63 C 420.78 427.96 418.50 430.11 417.54 433.05 C 417.36 433.33 417.01 433.89 416.83 434.17 C 416.47 434.27 415.73 434.45 415.36 434.55 C 415.17 435.05 414.78 436.06 414.58 436.56 C 413.18 437.72 411.82 438.94 410.68 440.36 C 405.79 445.26 400.98 450.28 395.43 454.46 C 393.78 455.85 392.33 457.45 390.94 459.10 C 389.94 459.97 388.78 460.60 387.48 460.89 C 386.59 459.62 386.54 457.89 385.30 456.85 C 381.81 453.28 378.14 449.89 374.42 446.57 C 368.82 441.13 363.83 435.07 359.44 428.63 C 360.45 425.78 357.71 423.67 356.58 421.34 C 353.45 415.87 350.11 410.22 349.11 403.90 C 350.20 405.26 351.20 406.68 352.18 408.12 C 353.33 407.23 355.23 406.64 355.39 404.96 C 354.72 402.92 354.11 400.85 354.14 398.68 Z" />
</g>
<g id="#44341780">
<path fill="#443417" opacity="0.50" d=" M 389.95 408.70 C 391.34 408.03 392.85 407.69 394.38 407.54 C 394.47 409.98 393.60 412.28 392.29 414.31 C 393.00 412.29 393.52 410.20 394.03 408.12 C 393.01 408.26 390.97 408.55 389.95 408.70 Z" />
</g>
<g id="#a3630cfd">
<path fill="#a3630c" opacity="1.00" d=" M 339.05 407.61 C 341.55 409.85 343.26 412.78 345.57 415.19 C 346.93 415.81 348.46 415.85 349.91 416.16 C 352.90 421.71 356.19 427.10 359.76 432.30 C 356.59 431.52 354.65 427.97 351.32 427.95 C 347.80 420.82 340.37 415.80 339.05 407.61 Z" />
</g>
<g id="#3e3424cc">
<path fill="#3e3424" opacity="0.80" d=" M 391.22 416.11 C 387.71 416.46 387.85 411.38 388.48 408.94 C 388.77 411.32 389.42 413.67 390.91 415.62 L 391.22 416.11 Z" />
</g>
<g id="#6e624bf3">
<path fill="#6e624b" opacity="0.95" d=" M 388.48 408.94 L 389.95 408.70 C 390.97 408.55 393.01 408.26 394.03 408.12 C 393.52 410.20 393.00 412.29 392.29 414.31 C 391.95 414.64 391.25 415.29 390.91 415.62 C 389.42 413.67 388.77 411.32 388.48 408.94 Z" />
</g>
<g id="#1da4ebfd">
<path fill="#1da4eb" opacity="1.00" d=" M 248.97 434.90 C 272.76 422.08 299.23 414.26 326.14 412.02 C 327.32 415.81 326.81 419.86 327.07 423.77 C 308.90 426.88 290.62 430.07 273.20 436.29 C 251.36 443.01 230.07 454.02 215.17 471.76 C 215.74 466.72 218.42 462.29 221.00 458.05 C 227.69 447.65 238.60 441.11 248.97 434.90 Z" />
</g>
<g id="#003b9dfd">
<path fill="#003b9d" opacity="1.00" d=" M 703.07 419.26 C 712.42 416.86 722.08 415.76 731.38 413.13 C 729.69 435.15 727.52 457.11 725.53 479.08 C 724.71 482.19 725.44 485.55 724.33 488.57 C 724.28 485.51 724.11 482.46 724.34 479.41 C 726.65 459.98 728.01 440.47 730.12 421.02 C 730.23 418.81 730.94 416.25 729.33 414.41 C 721.13 416.90 712.41 417.40 704.32 420.20 C 702.51 434.96 701.75 449.92 700.56 464.77 C 699.33 469.85 700.06 475.10 699.23 480.22 C 698.53 484.37 698.99 488.59 698.58 492.77 C 697.55 497.01 697.79 501.39 697.59 505.72 C 696.19 511.37 696.94 517.23 696.17 522.97 C 696.15 528.89 694.86 534.74 695.28 540.66 C 702.73 540.82 710.11 539.38 717.58 539.66 C 719.42 531.22 719.87 522.51 720.08 513.89 C 720.12 511.74 720.29 509.59 720.48 507.45 C 721.16 507.07 721.85 506.69 722.55 506.32 C 722.55 506.64 722.56 507.26 722.56 507.57 C 720.74 510.70 721.29 514.58 720.95 518.07 C 720.85 526.03 719.80 533.95 718.98 541.87 C 710.39 541.82 701.79 542.10 693.22 541.78 C 695.37 525.56 696.08 509.17 697.54 492.88 C 698.26 487.87 697.68 482.76 698.75 477.79 C 699.85 458.25 702.14 438.80 703.07 419.26 Z" />
<path fill="#003b9d" opacity="1.00" d=" M 308.41 553.99 C 318.97 557.53 329.29 561.74 339.91 565.09 C 346.16 567.55 352.74 569.22 358.68 572.41 C 360.14 572.53 361.60 572.57 363.08 572.54 C 361.39 572.81 359.67 572.91 357.99 572.56 C 353.36 571.60 348.72 572.91 344.07 572.88 C 326.17 573.21 308.38 570.95 290.67 568.57 C 297.61 567.01 304.64 569.63 311.65 569.78 C 311.61 567.35 311.34 564.93 310.79 562.57 C 309.61 563.24 308.50 564.24 307.05 564.16 C 301.90 564.25 296.62 564.68 291.61 563.18 C 296.40 562.81 301.25 563.71 305.98 562.62 C 303.18 559.39 298.43 559.92 294.75 558.38 C 297.56 557.35 300.42 557.77 302.95 559.31 C 303.49 558.06 304.03 556.82 304.58 555.59 C 305.85 555.05 307.13 554.52 308.41 553.99 Z" />
</g>
<g id="#fda500fe">
<path fill="#fda500" opacity="1.00" d=" M 1192.26 416.16 C 1198.89 415.10 1205.51 413.62 1212.21 413.05 C 1211.05 420.52 1210.84 428.08 1209.85 435.58 C 1207.50 440.92 1208.39 446.87 1206.90 452.42 C 1206.13 449.76 1205.24 447.13 1204.14 444.59 C 1202.77 444.83 1201.40 445.00 1200.04 444.71 C 1197.72 444.16 1196.17 446.69 1193.99 446.94 C 1192.34 446.50 1191.23 445.03 1189.93 444.05 C 1189.10 445.16 1188.29 446.28 1187.50 447.41 C 1185.53 447.55 1183.48 447.54 1181.91 446.20 C 1182.93 436.88 1182.69 427.32 1185.02 418.21 C 1187.44 417.57 1189.83 416.80 1192.26 416.16 Z" />
<path fill="#fda500" opacity="1.00" d=" M 1034.01 417.18 C 1047.61 417.14 1061.40 415.64 1074.84 418.34 C 1082.58 420.42 1090.76 423.45 1095.79 430.04 C 1098.29 433.13 1100.51 436.81 1100.96 440.82 C 1100.33 446.45 1101.75 452.32 1099.77 457.77 C 1099.00 456.51 1098.27 455.26 1097.54 454.00 C 1097.35 454.57 1096.95 455.70 1096.76 456.27 C 1093.58 454.87 1090.10 455.75 1086.77 455.45 C 1084.66 455.32 1082.57 454.73 1080.45 454.97 C 1078.02 455.57 1075.84 456.85 1073.60 457.89 C 1073.47 454.38 1074.66 449.57 1071.24 447.28 C 1069.72 444.22 1068.15 440.84 1064.96 439.20 C 1059.31 435.80 1052.53 435.70 1046.15 435.88 C 1046.09 436.57 1045.96 437.96 1045.89 438.66 C 1045.23 440.35 1044.52 442.02 1043.92 443.74 C 1043.41 445.04 1042.90 446.33 1042.42 447.64 C 1040.08 447.76 1037.75 447.64 1035.43 447.54 C 1033.35 447.20 1031.89 449.15 1029.87 449.22 C 1026.50 450.09 1023.55 447.61 1020.24 447.63 C 1018.68 447.78 1017.26 448.48 1015.82 448.97 C 1015.50 439.58 1017.69 430.28 1016.97 420.91 C 1017.06 420.30 1017.24 419.09 1017.33 418.48 C 1022.88 417.88 1028.48 417.99 1034.01 417.18 Z" />
</g>
<g id="#0075d8fe">
<path fill="#0075d8" opacity="1.00" d=" M 704.32 420.20 C 712.41 417.40 721.13 416.90 729.33 414.41 C 730.94 416.25 730.23 418.81 730.12 421.02 C 728.01 440.47 726.65 459.98 724.34 479.41 C 722.72 477.44 721.45 475.20 721.15 472.64 C 717.70 473.14 714.78 470.70 711.42 471.02 C 710.80 470.54 710.18 470.06 709.58 469.59 C 706.92 470.78 704.16 471.72 701.45 472.75 C 703.03 470.07 701.68 467.31 700.56 464.77 C 701.75 449.92 702.51 434.96 704.32 420.20 Z" />
</g>
<g id="#fd7809fe">
<path fill="#fd7809" opacity="1.00" d=" M 1183.67 417.73 C 1186.29 416.55 1189.42 416.69 1192.26 416.16 C 1189.83 416.80 1187.44 417.57 1185.02 418.21 C 1182.69 427.32 1182.93 436.88 1181.91 446.20 C 1181.56 450.86 1182.03 455.60 1181.02 460.19 C 1179.91 464.58 1180.05 469.14 1180.46 473.61 C 1181.68 474.42 1182.78 475.40 1183.69 476.57 C 1183.99 475.17 1184.39 473.80 1184.88 472.46 C 1186.89 473.55 1188.89 472.57 1190.90 472.07 C 1193.28 473.47 1195.91 474.10 1198.69 473.70 C 1199.70 474.43 1200.53 475.60 1201.82 475.88 C 1203.49 474.30 1204.95 472.52 1206.56 470.87 C 1205.80 481.63 1204.54 492.32 1203.73 503.07 C 1203.64 500.39 1203.83 497.31 1201.65 495.36 C 1199.59 493.54 1200.35 489.12 1196.88 489.17 C 1195.15 489.49 1193.53 490.20 1191.91 490.81 C 1190.59 489.92 1189.28 489.03 1187.99 488.14 C 1187.80 489.28 1187.61 490.42 1187.45 491.57 C 1184.69 491.10 1181.97 490.46 1179.34 489.54 C 1178.99 490.70 1178.67 491.88 1178.36 493.06 C 1178.44 489.77 1178.28 486.47 1177.37 483.30 C 1179.06 465.18 1180.89 447.09 1182.46 428.97 C 1183.33 425.27 1182.38 421.29 1183.67 417.73 Z" />
</g>
<g id="#0078d6fe">
<path fill="#0078d6" opacity="1.00" d=" M 471.47 418.97 C 479.64 418.18 487.81 416.96 496.04 417.16 C 509.36 416.87 523.15 415.79 535.96 420.22 C 543.67 422.88 550.85 428.25 553.89 436.04 C 557.80 444.21 557.12 453.60 555.37 462.23 C 554.25 466.62 552.93 471.02 550.59 474.94 C 549.28 473.76 548.05 472.48 546.58 471.52 C 543.86 471.24 541.06 471.96 538.44 470.92 C 536.81 470.25 535.15 471.02 533.59 471.47 C 532.36 470.36 530.86 469.76 529.22 469.69 C 529.08 470.17 528.79 471.14 528.64 471.62 C 527.97 470.89 527.30 470.16 526.64 469.45 C 525.75 469.84 524.87 470.24 524.01 470.65 C 527.41 462.21 529.94 452.07 525.46 443.54 C 524.87 442.01 523.41 441.23 522.09 440.45 C 515.95 435.99 507.81 435.43 500.53 436.58 C 499.67 444.43 499.25 452.33 498.30 460.19 C 498.20 458.27 498.03 456.37 497.87 454.47 C 497.20 454.83 496.53 455.20 495.87 455.57 C 495.70 455.23 495.36 454.55 495.18 454.21 C 495.75 453.27 496.32 452.34 496.90 451.42 C 495.48 451.70 494.06 451.98 492.65 452.27 C 492.61 453.14 492.57 454.01 492.54 454.89 C 491.46 453.53 490.50 452.03 489.15 450.92 C 485.97 449.80 482.58 449.68 479.26 449.36 C 476.68 448.83 474.12 447.98 471.46 448.33 C 471.37 450.92 471.12 453.51 470.81 456.09 C 470.24 454.97 469.69 453.85 469.16 452.72 C 469.65 441.45 470.82 430.22 471.47 418.97 Z" />
</g>
<g id="#043076cc">
<path fill="#043076" opacity="0.80" d=" M 469.02 442.94 C 470.38 435.01 470.05 426.87 471.47 418.97 C 470.82 430.22 469.65 441.45 469.16 452.72 C 467.98 461.69 467.98 470.77 467.22 479.78 C 466.12 488.76 465.86 497.82 465.27 506.84 C 464.18 518.47 462.65 530.09 462.27 541.78 C 471.82 541.04 481.46 541.78 490.96 540.22 C 491.60 536.51 492.27 532.78 492.40 529.01 C 492.54 526.13 492.13 523.11 493.54 520.45 C 493.39 527.68 492.56 534.84 491.98 542.04 C 481.70 541.64 471.43 542.81 461.17 542.88 C 462.19 530.87 463.10 518.88 464.43 506.89 C 465.34 501.26 464.62 495.51 465.80 489.91 C 465.70 482.88 467.36 476.00 467.06 468.96 C 467.94 464.31 467.97 459.59 468.15 454.88 C 469.00 450.95 469.03 446.93 469.02 442.94 Z" />
</g>
<g id="#fa850bfd">
<path fill="#fa850b" opacity="1.00" d=" M 1012.46 472.01 C 1013.50 455.03 1015.12 437.90 1016.97 420.91 C 1017.69 430.28 1015.50 439.58 1015.82 448.97 C 1016.11 452.55 1014.68 457.02 1017.44 459.90 C 1019.29 458.53 1021.53 459.24 1023.62 458.94 C 1024.32 460.50 1025.75 461.73 1027.59 461.38 C 1032.19 460.76 1036.83 460.26 1041.38 459.29 C 1043.25 454.32 1044.33 449.06 1043.92 443.74 C 1044.52 442.02 1045.23 440.35 1045.89 438.66 C 1044.52 451.76 1043.54 464.90 1042.28 478.01 C 1042.07 476.61 1041.85 475.22 1041.62 473.84 C 1040.04 477.55 1039.86 481.62 1041.05 485.48 C 1038.35 484.53 1035.63 483.63 1032.84 483.07 C 1031.13 482.58 1029.76 484.02 1028.22 484.45 C 1025.80 484.15 1023.41 482.94 1020.95 483.84 C 1018.58 483.88 1014.96 486.31 1013.59 483.33 C 1012.73 479.61 1013.97 475.64 1012.46 472.01 Z" />
</g>
<g id="#c38125fd">
<path fill="#c38125" opacity="1.00" d=" M 349.01 428.88 C 353.49 432.57 357.67 437.21 358.75 443.11 C 356.51 442.48 354.31 441.72 352.21 440.75 C 348.16 435.62 341.22 436.47 335.59 434.68 C 339.75 433.25 344.78 433.41 348.00 429.99 C 348.25 429.71 348.76 429.16 349.01 428.88 Z" />
</g>
<g id="#9c5211fb">
<path fill="#9c5211" opacity="1.00" d=" M 280.58 447.35 C 301.72 440.49 323.53 436.05 344.94 430.19 C 345.71 430.14 347.24 430.04 348.00 429.99 C 344.78 433.41 339.75 433.25 335.59 434.68 C 341.22 436.47 348.16 435.62 352.21 440.75 C 350.09 440.38 347.97 440.10 345.84 439.92 C 342.69 435.73 336.67 437.12 332.13 437.05 C 332.27 437.48 332.55 438.35 332.69 438.79 C 332.51 439.12 332.14 439.78 331.96 440.11 C 325.88 438.72 319.97 440.94 314.11 442.25 C 306.40 444.65 298.65 446.92 290.82 448.87 C 288.85 447.21 286.36 448.34 284.13 448.56 C 282.93 448.19 281.75 447.78 280.58 447.35 Z" />
</g>
<g id="#7f4216fe">
<path fill="#7f4216" opacity="1.00" d=" M 415.36 434.55 C 415.73 434.45 416.47 434.27 416.83 434.17 C 416.88 435.37 416.17 436.30 415.50 437.21 C 420.20 437.55 424.49 439.71 429.00 440.92 C 434.23 442.32 439.52 443.61 444.64 445.41 L 445.09 446.08 C 442.89 446.04 440.69 446.08 438.49 446.11 C 438.61 446.63 438.87 447.66 438.99 448.18 C 437.14 448.63 435.31 449.16 433.49 449.70 C 430.60 448.41 427.68 449.89 424.96 450.84 C 421.19 452.25 417.29 453.21 413.41 454.24 C 413.57 454.64 413.87 455.44 414.02 455.84 C 412.42 456.33 410.81 456.79 409.21 457.24 C 408.45 456.88 407.69 456.54 406.93 456.22 C 401.38 454.89 396.22 457.93 390.94 459.10 C 392.33 457.45 393.78 455.85 395.43 454.46 C 399.86 454.36 402.48 450.16 405.58 447.58 C 407.50 445.38 410.85 443.68 410.68 440.36 C 411.82 438.94 413.18 437.72 414.58 436.56 C 414.78 436.06 415.17 435.05 415.36 434.55 Z" />
</g>
<g id="#fd8905fe">
<path fill="#fd8905" opacity="1.00" d=" M 1206.90 452.42 C 1208.39 446.87 1207.50 440.92 1209.85 435.58 C 1209.23 447.30 1207.32 458.94 1206.75 470.68 L 1206.56 470.87 C 1204.95 472.52 1203.49 474.30 1201.82 475.88 C 1200.53 475.60 1199.70 474.43 1198.69 473.70 C 1195.91 474.10 1193.28 473.47 1190.90 472.07 C 1188.89 472.57 1186.89 473.55 1184.88 472.46 C 1184.39 473.80 1183.99 475.17 1183.69 476.57 C 1182.78 475.40 1181.68 474.42 1180.46 473.61 C 1180.05 469.14 1179.91 464.58 1181.02 460.19 C 1181.79 460.23 1182.58 460.28 1183.38 460.33 C 1184.20 459.32 1185.04 458.31 1185.88 457.31 C 1187.25 458.65 1188.90 459.59 1190.89 459.53 C 1191.64 460.23 1192.37 461.00 1193.24 461.61 C 1195.14 461.30 1196.89 460.46 1198.70 459.82 C 1198.26 460.58 1197.84 461.35 1197.43 462.13 C 1200.52 462.77 1203.13 460.65 1206.03 459.96 C 1207.16 457.63 1206.70 454.92 1206.90 452.42 Z" />
</g>
<g id="#c28029fd">
<path fill="#c28029" opacity="1.00" d=" M 332.13 437.05 C 336.67 437.12 342.69 435.73 345.84 439.92 C 341.39 440.40 337.09 439.02 332.69 438.79 C 332.55 438.35 332.27 437.48 332.13 437.05 Z" />
</g>
<g id="#fbfcfafd">
<path fill="#fbfcfa" opacity="1.00" d=" M 314.11 442.25 C 319.97 440.94 325.88 438.72 331.96 440.11 C 337.25 441.18 342.62 441.96 348.03 442.02 C 351.42 441.82 354.39 443.73 357.65 444.32 C 361.69 444.94 364.66 447.92 368.05 449.92 C 373.64 453.33 378.34 457.92 383.54 461.87 C 374.63 460.67 366.10 457.03 357.03 456.85 C 353.65 456.71 350.33 456.07 347.03 455.40 C 346.95 455.38 346.78 455.33 346.70 455.31 C 342.76 453.92 338.79 452.65 334.80 451.41 C 333.58 451.01 332.35 450.60 331.14 450.17 C 330.71 450.04 329.84 449.76 329.41 449.63 C 323.90 448.07 318.43 446.36 312.96 444.70 C 312.70 444.31 312.19 443.54 311.94 443.15 C 312.48 442.92 313.57 442.47 314.11 442.25 Z" />
</g>
<g id="#4e1d07fd">
<path fill="#4e1d07" opacity="1.00" d=" M 410.68 440.36 C 410.85 443.68 407.50 445.38 405.58 447.58 C 402.48 450.16 399.86 454.36 395.43 454.46 C 400.98 450.28 405.79 445.26 410.68 440.36 Z" />
<path fill="#4e1d07" opacity="1.00" d=" M 326.09 467.84 C 326.26 467.55 326.61 466.95 326.79 466.66 C 336.64 469.88 346.68 472.52 356.42 476.08 L 356.36 476.89 C 356.81 488.81 357.35 500.75 357.47 512.69 C 356.97 515.77 356.63 518.87 356.50 522.00 C 356.14 512.33 356.37 502.64 355.55 493.00 C 355.04 487.76 355.85 482.38 354.78 477.23 C 345.56 473.25 335.73 470.70 326.09 467.84 Z" />
<path fill="#4e1d07" opacity="1.00" d=" M 444.44 533.10 C 447.16 517.41 445.76 501.42 447.70 485.68 C 447.88 502.79 447.50 519.93 447.96 537.04 C 447.10 538.44 446.14 539.85 444.60 540.58 C 437.62 544.64 430.14 547.74 422.65 550.68 C 415.42 553.95 408.01 556.78 400.60 559.58 C 388.03 563.69 376.31 570.63 363.08 572.54 C 361.60 572.57 360.14 572.53 358.68 572.41 C 358.27 569.11 358.86 565.81 359.50 562.58 L 359.99 563.06 C 359.84 565.31 359.75 567.58 360.21 569.81 C 360.85 569.79 362.12 569.76 362.76 569.74 C 363.30 567.63 362.98 565.52 362.21 563.52 C 362.40 563.56 362.77 563.63 362.96 563.67 C 364.17 563.91 365.46 564.32 366.68 563.83 C 375.45 561.31 383.64 557.16 392.29 554.29 C 400.65 551.31 409.15 548.70 417.39 545.38 C 425.29 542.45 433.40 540.05 441.15 536.75 C 441.26 536.40 441.49 535.71 441.61 535.36 C 441.68 535.13 441.83 534.68 441.90 534.45 C 443.78 526.40 441.70 517.91 443.25 509.75 C 445.03 517.39 443.95 525.32 444.44 533.10 Z" />
</g>
<g id="#005dc7fe">
<path fill="#005dc7" opacity="1.00" d=" M 522.09 440.45 C 523.41 441.23 524.87 442.01 525.46 443.54 C 529.94 452.07 527.41 462.21 524.01 470.65 C 524.87 470.24 525.75 469.84 526.64 469.45 C 527.30 470.16 527.97 470.89 528.64 471.62 C 528.79 471.14 529.08 470.17 529.22 469.69 C 530.86 469.76 532.36 470.36 533.59 471.47 C 535.15 471.02 536.81 470.25 538.44 470.92 C 541.06 471.96 543.86 471.24 546.58 471.52 C 548.05 472.48 549.28 473.76 550.59 474.94 C 548.06 479.50 544.58 483.49 540.93 487.17 C 528.84 498.27 511.60 501.37 495.70 500.74 C 495.48 500.99 495.04 501.47 494.82 501.71 C 492.87 504.81 493.07 508.65 492.32 512.12 C 491.86 510.08 491.64 507.98 491.05 505.98 C 489.77 503.53 487.04 505.14 485.01 505.10 C 481.62 504.49 477.88 505.23 474.97 502.99 C 473.15 501.55 471.00 503.18 469.13 503.65 C 468.49 503.24 467.86 502.84 467.23 502.44 C 467.09 504.64 466.94 506.84 466.79 509.05 C 466.41 508.50 465.65 507.39 465.27 506.84 C 465.86 497.82 466.12 488.76 467.22 479.78 C 467.60 480.01 468.37 480.46 468.75 480.69 C 469.01 479.14 469.28 477.60 469.52 476.06 C 469.88 478.15 470.44 480.23 471.42 482.13 C 471.68 479.91 471.98 477.69 472.72 475.58 C 474.14 476.80 475.32 478.40 477.02 479.27 C 481.50 480.85 486.33 480.51 491.00 480.74 C 493.01 481.04 494.42 479.40 495.87 478.32 C 496.02 479.61 496.18 480.92 496.35 482.22 C 501.67 481.79 507.22 481.49 512.06 479.01 C 519.42 475.46 524.99 468.18 526.06 460.03 C 527.22 453.29 526.70 445.86 522.09 440.45 Z" />
</g>
<g id="#fe8e06fe">
<path fill="#fe8e06" opacity="1.00" d=" M 1100.96 440.82 C 1104.30 451.60 1101.67 463.50 1096.94 473.50 C 1095.19 474.35 1093.38 475.03 1091.56 475.66 C 1091.29 475.14 1090.74 474.11 1090.47 473.60 C 1089.82 473.88 1089.19 474.17 1088.58 474.48 C 1086.85 470.19 1082.41 473.58 1079.13 472.85 C 1077.31 472.46 1075.53 472.93 1073.87 473.63 C 1072.85 473.22 1071.86 472.80 1070.88 472.39 C 1069.59 473.19 1068.31 474.01 1067.07 474.86 C 1067.90 473.16 1068.56 471.35 1068.54 469.43 C 1072.19 462.72 1073.39 454.66 1071.24 447.28 C 1074.66 449.57 1073.47 454.38 1073.60 457.89 C 1075.84 456.85 1078.02 455.57 1080.45 454.97 C 1082.57 454.73 1084.66 455.32 1086.77 455.45 C 1090.10 455.75 1093.58 454.87 1096.76 456.27 C 1096.95 455.70 1097.35 454.57 1097.54 454.00 C 1098.27 455.26 1099.00 456.51 1099.77 457.77 C 1101.75 452.32 1100.33 446.45 1100.96 440.82 Z" />
</g>
<g id="#f3c159fd">
<path fill="#f3c159" opacity="1.00" d=" M 290.82 448.87 C 298.65 446.92 306.40 444.65 314.11 442.25 C 313.57 442.47 312.48 442.92 311.94 443.15 C 312.19 443.54 312.70 444.31 312.96 444.70 L 311.58 445.01 C 306.33 446.23 301.11 447.54 295.89 448.85 C 291.79 449.82 287.79 452.41 283.45 451.21 C 283.90 451.02 284.78 450.62 285.23 450.43 C 287.07 449.85 288.94 449.33 290.82 448.87 Z" />
<path fill="#f3c159" opacity="1.00" d=" M 331.14 450.17 C 332.35 450.60 333.58 451.01 334.80 451.41 C 334.65 451.78 334.35 452.52 334.20 452.88 C 337.78 453.97 341.28 455.49 345.00 456.06 C 345.42 455.87 346.27 455.50 346.70 455.31 C 346.78 455.33 346.95 455.38 347.03 455.40 C 348.11 456.31 349.14 457.28 350.18 458.26 C 345.96 458.37 341.47 457.99 337.66 460.20 C 333.50 458.09 328.43 460.32 325.39 463.41 C 326.15 464.03 326.92 464.65 327.69 465.27 C 327.54 465.49 327.25 465.93 327.10 466.15 C 319.48 464.63 312.26 461.55 304.58 460.21 C 305.13 459.20 305.68 458.19 306.24 457.18 C 306.90 457.08 308.23 456.87 308.90 456.77 L 309.58 456.87 C 315.57 457.62 321.08 453.96 326.83 452.67 C 327.91 452.26 328.97 451.77 329.99 451.23 C 330.28 450.96 330.86 450.44 331.14 450.17 Z" />
</g>
<g id="#fc9804fd">
<path fill="#fc9804" opacity="1.00" d=" M 1042.42 447.64 C 1042.90 446.33 1043.41 445.04 1043.92 443.74 C 1044.33 449.06 1043.25 454.32 1041.38 459.29 C 1036.83 460.26 1032.19 460.76 1027.59 461.38 C 1025.75 461.73 1024.32 460.50 1023.62 458.94 C 1021.53 459.24 1019.29 458.53 1017.44 459.90 C 1014.68 457.02 1016.11 452.55 1015.82 448.97 C 1017.26 448.48 1018.68 447.78 1020.24 447.63 C 1023.55 447.61 1026.50 450.09 1029.87 449.22 C 1031.89 449.15 1033.35 447.20 1035.43 447.54 C 1037.75 447.64 1040.08 447.76 1042.42 447.64 Z" />
</g>
<g id="#fe9801fe">
<path fill="#fe9801" opacity="1.00" d=" M 1187.50 447.41 C 1188.29 446.28 1189.10 445.16 1189.93 444.05 C 1191.23 445.03 1192.34 446.50 1193.99 446.94 C 1196.17 446.69 1197.72 444.16 1200.04 444.71 C 1201.40 445.00 1202.77 444.83 1204.14 444.59 C 1205.24 447.13 1206.13 449.76 1206.90 452.42 C 1206.70 454.92 1207.16 457.63 1206.03 459.96 C 1203.13 460.65 1200.52 462.77 1197.43 462.13 C 1197.84 461.35 1198.26 460.58 1198.70 459.82 C 1196.89 460.46 1195.14 461.30 1193.24 461.61 C 1192.37 461.00 1191.64 460.23 1190.89 459.53 C 1188.90 459.59 1187.25 458.65 1185.88 457.31 C 1185.04 458.31 1184.20 459.32 1183.38 460.33 C 1182.58 460.28 1181.79 460.23 1181.02 460.19 C 1182.03 455.60 1181.56 450.86 1181.91 446.20 C 1183.48 447.54 1185.53 447.55 1187.50 447.41 Z" />
</g>
<g id="#e0a344fe">
<path fill="#e0a344" opacity="1.00" d=" M 295.89 448.85 C 301.11 447.54 306.33 446.23 311.58 445.01 C 313.67 446.31 315.80 447.54 317.98 448.70 C 311.98 450.33 305.90 451.65 299.91 453.30 C 302.33 455.67 305.69 456.24 308.90 456.77 C 308.23 456.87 306.90 457.08 306.24 457.18 C 305.68 458.19 305.13 459.20 304.58 460.21 L 304.12 460.08 C 296.38 457.83 288.79 455.04 280.99 453.01 C 280.78 452.55 280.37 451.63 280.16 451.17 C 281.26 451.18 282.35 451.19 283.45 451.21 C 287.79 452.41 291.79 449.82 295.89 448.85 Z" />
</g>
<g id="#c68534fd">
<path fill="#c68534" opacity="1.00" d=" M 311.58 445.01 L 312.96 444.70 C 318.43 446.36 323.90 448.07 329.41 449.63 C 329.12 449.90 328.56 450.45 328.28 450.73 C 328.71 450.85 329.56 451.10 329.99 451.23 C 328.97 451.77 327.91 452.26 326.83 452.67 C 325.45 451.69 323.77 451.45 322.21 452.12 C 317.90 453.43 313.74 455.17 309.58 456.87 L 308.90 456.77 C 305.69 456.24 302.33 455.67 299.91 453.30 C 305.90 451.65 311.98 450.33 317.98 448.70 C 315.80 447.54 313.67 446.31 311.58 445.01 Z" />
</g>
<g id="#9d511bfa">
<path fill="#9d511b" opacity="0.98" d=" M 438.49 446.11 C 440.69 446.08 442.89 446.04 445.09 446.08 C 445.56 446.37 446.49 446.95 446.96 447.24 L 446.84 447.96 C 445.28 456.23 445.70 464.71 444.36 473.01 C 444.11 465.70 444.91 458.34 444.12 451.06 C 443.77 450.49 443.06 449.36 442.70 448.80 C 441.48 448.51 440.22 448.32 438.99 448.18 C 438.87 447.66 438.61 446.63 438.49 446.11 Z" />
</g>
<g id="#bc7126fb">
<path fill="#bc7126" opacity="1.00" d=" M 272.61 451.60 C 274.65 449.25 277.64 448.11 280.58 447.35 C 281.75 447.78 282.93 448.19 284.13 448.56 C 283.43 448.96 282.04 449.75 281.35 450.14 C 282.32 450.21 284.26 450.36 285.23 450.43 C 284.78 450.62 283.90 451.02 283.45 451.21 C 282.35 451.19 281.26 451.18 280.16 451.17 C 280.37 451.63 280.78 452.55 280.99 453.01 C 278.18 452.64 275.36 452.27 272.61 451.60 Z" />
</g>
<g id="#88390afe">
<path fill="#88390a" opacity="1.00" d=" M 284.13 448.56 C 286.36 448.34 288.85 447.21 290.82 448.87 C 288.94 449.33 287.07 449.85 285.23 450.43 C 284.26 450.36 282.32 450.21 281.35 450.14 C 282.04 449.75 283.43 448.96 284.13 448.56 Z" />
</g>
<g id="#e7a43bfe">
<path fill="#e7a43b" opacity="1.00" d=" M 433.49 449.70 C 435.31 449.16 437.14 448.63 438.99 448.18 C 440.22 448.32 441.48 448.51 442.70 448.80 C 442.41 450.61 442.22 452.43 442.19 454.28 C 441.52 453.26 440.87 452.26 440.22 451.26 C 436.65 452.56 433.19 454.14 429.77 455.79 C 422.93 458.43 415.85 460.35 408.96 462.83 C 409.02 460.96 409.09 459.10 409.21 457.24 C 410.81 456.79 412.42 456.33 414.02 455.84 C 420.56 453.95 427.04 451.87 433.49 449.70 Z" />
</g>
<g id="#76330ffd">
<path fill="#76330f" opacity="1.00" d=" M 446.84 447.96 L 447.66 448.40 C 448.06 460.81 447.72 473.26 447.70 485.68 C 445.76 501.42 447.16 517.41 444.44 533.10 C 443.95 525.32 445.03 517.39 443.25 509.75 C 441.70 517.91 443.78 526.40 441.90 534.45 C 442.26 507.73 442.00 481.00 442.19 454.28 C 442.22 452.43 442.41 450.61 442.70 448.80 C 443.06 449.36 443.77 450.49 444.12 451.06 C 444.91 458.34 444.11 465.70 444.36 473.01 C 445.70 464.71 445.28 456.23 446.84 447.96 Z" />
</g>
<g id="#006cd3fe">
<path fill="#006cd3" opacity="1.00" d=" M 471.46 448.33 C 474.12 447.98 476.68 448.83 479.26 449.36 C 482.58 449.68 485.97 449.80 489.15 450.92 C 490.50 452.03 491.46 453.53 492.54 454.89 C 492.57 454.01 492.61 453.14 492.65 452.27 C 494.06 451.98 495.48 451.70 496.90 451.42 C 496.32 452.34 495.75 453.27 495.18 454.21 C 495.36 454.55 495.70 455.23 495.87 455.57 C 496.53 455.20 497.20 454.83 497.87 454.47 C 498.03 456.37 498.20 458.27 498.30 460.19 C 497.84 467.55 496.85 474.86 496.35 482.22 C 496.18 480.92 496.02 479.61 495.87 478.32 C 494.42 479.40 493.01 481.04 491.00 480.74 C 486.33 480.51 481.50 480.85 477.02 479.27 C 475.32 478.40 474.14 476.80 472.72 475.58 C 471.98 477.69 471.68 479.91 471.42 482.13 C 470.44 480.23 469.88 478.15 469.52 476.06 C 469.28 477.60 469.01 479.14 468.75 480.69 C 468.37 480.46 467.60 480.01 467.22 479.78 C 467.98 470.77 467.98 461.69 469.16 452.72 C 469.69 453.85 470.24 454.97 470.81 456.09 C 471.12 453.51 471.37 450.92 471.46 448.33 Z" />
</g>
<g id="#6f2f0ffe">
<path fill="#6f2f0f" opacity="1.00" d=" M 424.96 450.84 C 427.68 449.89 430.60 448.41 433.49 449.70 C 427.04 451.87 420.56 453.95 414.02 455.84 C 413.87 455.44 413.57 454.64 413.41 454.24 C 417.29 453.21 421.19 452.25 424.96 450.84 Z" />
</g>
<g id="#893b01fd">
<path fill="#893b01" opacity="1.00" d=" M 328.28 450.73 C 328.56 450.45 329.12 449.90 329.41 449.63 C 329.84 449.76 330.71 450.04 331.14 450.17 C 330.86 450.44 330.28 450.96 329.99 451.23 C 329.56 451.10 328.71 450.85 328.28 450.73 Z" />
</g>
<g id="#d1842cfe">
<path fill="#d1842c" opacity="1.00" d=" M 440.22 451.26 C 440.87 452.26 441.52 453.26 442.19 454.28 C 442.00 481.00 442.26 507.73 441.90 534.45 C 440.52 529.86 441.50 525.03 441.08 520.34 C 441.31 512.35 441.24 504.35 440.69 496.38 C 441.53 486.92 440.84 477.40 440.11 467.96 C 439.92 463.50 440.27 459.03 439.87 454.58 C 436.75 456.27 433.14 455.54 429.77 455.79 C 433.19 454.14 436.65 452.56 440.22 451.26 Z" />
</g>
<g id="#7a3c14fe">
<path fill="#7a3c14" opacity="1.00" d=" M 272.09 455.63 C 271.64 454.26 272.28 452.90 272.61 451.60 C 275.36 452.27 278.18 452.64 280.99 453.01 C 288.79 455.04 296.38 457.83 304.12 460.08 C 303.90 467.34 303.96 474.65 305.10 481.84 C 311.90 485.69 319.72 487.55 327.02 490.37 C 327.19 482.83 325.63 475.37 326.09 467.84 C 335.73 470.70 345.56 473.25 354.78 477.23 C 355.85 482.38 355.04 487.76 355.55 493.00 C 356.37 502.64 356.14 512.33 356.50 522.00 C 356.63 518.87 356.97 515.77 357.47 512.69 C 357.84 516.00 358.19 519.35 357.88 522.70 C 356.78 527.41 357.81 532.24 357.59 537.02 C 357.44 544.32 357.86 551.63 357.56 558.93 C 357.81 558.40 358.32 557.34 358.57 556.82 C 358.66 558.55 358.77 560.28 358.93 562.01 C 340.84 555.15 322.53 548.87 304.19 542.71 C 295.40 540.05 286.72 537.04 278.10 533.88 C 281.74 529.75 278.72 524.11 277.77 519.53 C 276.96 512.00 275.65 504.49 275.33 496.91 C 275.71 485.55 274.31 474.24 273.57 462.92 C 273.38 460.44 272.67 458.04 272.09 455.63 M 344.41 484.32 C 335.91 489.41 327.61 494.83 319.51 500.52 C 318.44 501.36 317.02 501.99 316.64 503.44 L 318.28 503.24 C 318.06 503.39 317.64 503.69 317.43 503.84 C 315.48 502.44 313.95 505.56 311.92 505.46 C 308.97 504.18 306.55 502.03 303.90 500.28 C 298.34 496.75 292.45 493.81 286.87 490.31 C 285.76 490.44 284.66 490.56 283.55 490.69 C 282.29 494.02 284.90 496.83 286.40 499.56 C 293.59 510.92 301.43 521.89 309.50 532.63 L 308.84 532.91 C 310.36 533.84 312.21 535.07 314.00 533.99 C 316.65 531.99 318.52 529.16 320.68 526.68 C 330.11 514.76 341.42 504.23 348.86 490.86 C 349.70 488.65 349.04 486.21 348.99 483.93 C 347.46 483.93 345.77 483.38 344.41 484.32 Z" />
</g>
<g id="#a9601ffd">
<path fill="#a9601f" opacity="1.00" d=" M 322.21 452.12 C 323.77 451.45 325.45 451.69 326.83 452.67 C 321.08 453.96 315.57 457.62 309.58 456.87 C 313.74 455.17 317.90 453.43 322.21 452.12 Z" />
</g>
<g id="#ebaf36fe">
<path fill="#ebaf36" opacity="1.00" d=" M 334.20 452.88 C 334.35 452.52 334.65 451.78 334.80 451.41 C 338.79 452.65 342.76 453.92 346.70 455.31 C 346.27 455.50 345.42 455.87 345.00 456.06 C 341.28 455.49 337.78 453.97 334.20 452.88 Z" />
</g>
<g id="#c67823fe">
<path fill="#c67823" opacity="1.00" d=" M 439.87 454.58 C 440.27 459.03 439.92 463.50 440.11 467.96 C 440.84 477.40 441.53 486.92 440.69 496.38 C 439.29 491.39 439.98 486.18 439.58 481.08 C 439.26 482.10 438.95 483.12 438.64 484.15 C 438.30 484.33 437.60 484.69 437.26 484.87 C 437.83 485.79 438.41 486.71 439.00 487.64 C 437.79 487.26 436.59 486.89 435.39 486.52 C 434.43 487.18 433.48 487.86 432.49 488.47 C 431.62 487.49 431.48 486.12 431.09 484.93 C 428.96 483.97 427.19 482.48 426.28 480.29 C 425.58 482.62 424.87 484.95 424.24 487.31 C 422.13 487.56 420.03 487.88 417.95 488.26 C 417.08 487.78 416.23 487.31 415.38 486.84 C 415.02 486.98 414.31 487.27 413.96 487.42 C 412.56 487.07 411.14 487.02 409.73 487.31 C 409.98 484.49 409.75 481.68 409.40 478.89 C 408.76 473.67 409.17 468.40 408.88 463.17 C 407.02 465.68 408.24 469.23 407.85 472.17 C 406.99 467.49 407.62 462.74 407.19 458.03 C 405.07 457.89 402.95 457.75 400.84 457.89 C 402.85 457.35 405.66 458.23 406.93 456.22 C 407.69 456.54 408.45 456.88 409.21 457.24 C 409.09 459.10 409.02 460.96 408.96 462.83 C 415.85 460.35 422.93 458.43 429.77 455.79 C 433.14 455.54 436.75 456.27 439.87 454.58 Z" />
</g>
<g id="#0489e2fd">
<path fill="#0489e2" opacity="1.00" d=" M 261.47 455.31 C 261.66 455.33 262.04 455.36 262.23 455.37 C 263.04 464.85 262.72 474.39 263.60 483.87 C 263.99 492.05 263.86 500.24 263.87 508.43 C 259.38 507.81 255.61 505.10 251.48 503.46 C 246.00 500.53 241.34 495.90 238.69 490.26 C 236.91 486.55 236.98 482.31 237.09 478.31 C 238.94 479.49 240.83 480.66 242.80 481.66 C 246.55 480.76 251.95 479.90 254.38 483.71 C 255.09 484.49 255.97 485.10 256.81 485.75 C 260.39 483.46 262.25 479.16 261.95 474.98 C 261.60 468.49 262.33 461.98 261.49 455.52 L 261.47 455.31 Z" />
</g>
<g id="#0d92e5fd">
<path fill="#0d92e5" opacity="1.00" d=" M 227.26 478.17 C 235.98 467.38 248.68 460.34 261.49 455.52 C 262.33 461.98 261.60 468.49 261.95 474.98 C 262.25 479.16 260.39 483.46 256.81 485.75 C 255.97 485.10 255.09 484.49 254.38 483.71 C 251.95 479.90 246.55 480.76 242.80 481.66 C 240.83 480.66 238.94 479.49 237.09 478.31 C 237.09 477.85 237.10 476.92 237.10 476.46 C 237.03 476.52 236.89 476.63 236.82 476.69 C 235.33 477.82 233.96 479.08 232.66 480.42 C 231.11 480.55 229.44 480.32 227.99 480.94 C 226.22 483.12 225.05 485.88 222.40 487.20 C 223.64 483.99 225.54 481.12 227.26 478.17 Z" />
</g>
<g id="#60240afd">
<path fill="#60240a" opacity="1.00" d=" M 272.09 455.63 C 272.67 458.04 273.38 460.44 273.57 462.92 C 274.31 474.24 275.71 485.55 275.33 496.91 C 275.65 504.49 276.96 512.00 277.77 519.53 C 278.72 524.11 281.74 529.75 278.10 533.88 L 277.06 533.48 C 276.28 530.50 276.03 527.39 274.83 524.54 C 274.63 523.98 274.45 523.43 274.28 522.89 C 274.13 516.91 274.12 510.94 273.94 504.97 C 274.24 500.20 273.56 495.47 273.11 490.75 C 272.97 487.88 272.93 485.01 272.91 482.14 C 273.18 477.33 272.61 472.55 272.19 467.78 C 271.96 463.73 271.90 459.68 272.09 455.63 Z" />
</g>
<g id="#6a2207fd">
<path fill="#6a2207" opacity="1.00" d=" M 390.94 459.10 C 396.22 457.93 401.38 454.89 406.93 456.22 C 405.66 458.23 402.85 457.35 400.84 457.89 C 396.92 458.58 393.35 460.43 389.81 462.17 C 389.23 461.85 388.06 461.21 387.48 460.89 C 388.78 460.60 389.94 459.97 390.94 459.10 Z" />
</g>
<g id="#006ad2fe">
<path fill="#006ad2" opacity="1.00" d=" M 564.15 461.06 C 573.41 456.70 583.94 456.04 594.00 456.92 C 602.10 457.89 611.18 462.18 613.89 470.40 C 615.18 477.68 615.18 485.06 614.86 492.43 C 613.93 489.62 613.92 486.60 613.02 483.79 C 612.70 484.64 612.39 485.49 612.10 486.35 C 610.81 486.46 609.51 486.55 608.23 486.63 C 607.03 485.20 605.39 484.42 603.54 484.39 C 603.80 485.23 604.07 486.07 604.35 486.93 C 601.86 487.87 599.30 486.76 596.81 487.37 C 596.11 486.99 595.44 486.61 594.77 486.24 C 594.46 486.91 594.15 487.59 593.85 488.27 C 592.86 484.71 592.30 479.29 587.65 478.86 C 578.74 476.14 569.06 478.72 561.01 482.88 C 560.70 482.72 560.08 482.39 559.77 482.22 C 560.41 476.48 560.10 470.69 559.94 464.93 C 559.81 462.53 562.46 461.93 564.15 461.06 Z" />
</g>
<g id="#006cd4fe">
<path fill="#006cd4" opacity="1.00" d=" M 636.14 468.83 C 642.86 461.84 652.36 457.48 662.07 456.85 C 670.76 455.90 679.67 457.04 687.89 460.04 C 689.36 460.68 691.14 461.27 691.82 462.90 C 689.73 469.58 688.41 476.51 686.57 483.28 C 682.32 479.05 675.91 477.35 670.04 477.77 C 664.78 477.84 660.21 480.92 656.31 484.16 C 655.27 484.65 654.23 485.12 653.20 485.59 C 653.36 484.62 653.54 483.65 653.73 482.70 C 651.55 482.10 649.44 481.24 647.72 479.75 C 646.91 480.01 646.11 480.29 645.31 480.57 C 644.59 480.23 643.89 479.92 643.19 479.60 C 642.97 480.61 642.78 481.63 642.59 482.65 C 641.97 481.92 641.35 481.19 640.74 480.47 C 636.76 480.52 632.65 479.85 628.90 481.57 C 630.50 476.86 634.22 473.36 636.14 468.83 Z" />
</g>
<g id="#006bd2fe">
<path fill="#006bd2" opacity="1.00" d=" M 780.10 464.25 C 790.14 457.45 803.06 455.41 814.96 457.10 C 822.83 458.02 830.83 462.02 834.86 469.10 C 838.03 475.91 838.25 483.65 837.20 490.99 C 836.57 494.66 837.00 498.41 836.51 502.11 C 836.46 498.49 836.76 494.74 835.70 491.24 C 833.33 488.82 830.85 486.52 828.35 484.26 C 828.22 484.80 827.97 485.87 827.84 486.41 C 827.30 486.15 826.77 485.90 826.25 485.66 C 824.55 486.48 822.94 487.68 821.04 487.92 C 819.60 487.56 818.28 486.90 816.95 486.30 C 816.26 487.39 815.41 488.36 814.31 489.04 C 814.13 486.84 814.01 484.64 813.71 482.46 C 813.30 482.29 812.48 481.96 812.07 481.80 L 811.45 481.56 C 809.42 477.94 804.71 477.57 801.01 477.78 C 793.66 477.46 786.81 480.49 780.24 483.39 C 780.31 477.01 780.16 470.63 780.10 464.25 Z" />
<path fill="#006bd2" opacity="1.00" d=" M 876.49 458.58 C 888.73 455.03 901.79 456.29 913.99 459.34 C 916.71 460.10 919.65 460.54 921.99 462.27 C 920.63 468.41 920.85 474.73 919.97 480.93 C 919.91 487.70 918.65 494.36 918.57 501.13 C 918.56 498.72 918.28 496.32 917.94 493.95 C 917.14 495.23 916.37 496.52 915.61 497.81 C 914.41 496.61 913.24 495.37 912.12 494.11 C 911.58 495.15 911.06 496.19 910.55 497.25 C 907.08 495.11 903.08 494.95 899.33 496.49 C 898.73 495.82 898.14 495.16 897.56 494.51 C 896.77 494.86 895.99 495.22 895.23 495.59 C 895.14 494.87 894.95 493.45 894.85 492.74 C 895.04 488.14 895.71 483.57 895.97 478.97 C 896.33 476.72 893.77 475.91 892.02 475.83 C 887.19 475.36 881.23 476.33 878.57 480.89 C 878.27 481.15 877.65 481.68 877.35 481.94 C 874.80 482.36 872.95 484.01 871.71 486.18 C 870.59 485.92 869.47 486.01 868.39 486.36 C 868.32 485.00 867.89 483.72 867.00 482.69 C 866.29 482.91 865.61 483.14 864.94 483.37 C 864.50 482.07 864.07 480.77 863.66 479.48 C 860.85 480.04 858.53 481.59 856.56 483.59 C 854.18 485.46 853.86 479.68 851.52 481.37 C 850.07 483.78 849.06 486.51 846.80 488.32 C 847.77 485.78 848.46 483.14 849.20 480.53 C 854.44 469.62 864.96 461.79 876.49 458.58 Z" />
</g>
<g id="#006dd1fd">
<path fill="#006dd1" opacity="1.00" d=" M 951.81 459.80 C 962.84 455.56 975.54 455.06 986.63 459.35 C 993.65 461.91 998.97 468.64 999.74 476.07 C 999.84 481.01 1000.35 486.13 998.59 490.86 C 995.47 487.41 990.75 488.22 986.61 487.71 C 986.34 487.13 985.80 485.98 985.54 485.40 C 984.50 486.40 983.48 487.42 982.47 488.44 C 980.34 488.46 978.21 488.44 976.08 488.41 C 975.95 485.21 977.44 481.31 974.65 478.88 C 972.66 475.36 968.03 473.88 964.32 475.41 C 958.22 477.40 953.97 483.00 952.27 489.02 C 952.15 486.55 951.07 484.27 948.54 483.57 C 948.83 484.59 949.16 485.63 949.46 486.66 C 947.63 486.95 947.32 484.74 946.48 483.62 C 943.54 484.01 940.67 484.73 937.88 485.68 C 937.34 484.90 936.82 484.12 936.32 483.34 C 936.17 483.85 935.89 484.87 935.74 485.38 C 932.31 483.41 930.51 488.09 928.21 489.82 C 928.16 488.27 928.12 486.72 928.11 485.18 C 931.79 473.91 940.84 464.39 951.81 459.80 Z" />
</g>
<g id="#fd8308fe">
<path fill="#fd8308" opacity="1.00" d=" M 1109.91 460.85 C 1119.99 456.41 1131.36 456.20 1142.16 457.16 C 1150.68 458.05 1159.71 462.74 1162.40 471.40 C 1162.15 477.00 1162.65 482.77 1160.57 488.11 C 1159.43 485.31 1159.76 482.22 1159.46 479.28 C 1158.02 479.23 1156.59 479.19 1155.18 479.15 C 1156.11 479.64 1157.05 480.14 1158.01 480.66 C 1154.90 482.14 1151.81 480.36 1149.01 479.07 C 1146.29 479.78 1144.21 481.64 1142.53 483.80 C 1139.74 482.27 1138.16 478.74 1134.60 478.90 C 1124.66 476.10 1114.19 479.11 1105.14 483.38 C 1104.89 477.22 1105.44 471.05 1104.73 464.91 C 1105.31 462.53 1108.06 461.97 1109.91 460.85 Z" />
</g>
<g id="#fbf8e5fd">
<path fill="#fbf8e5" opacity="1.00" d=" M 389.81 462.17 C 393.35 460.43 396.92 458.58 400.84 457.89 C 402.95 457.75 405.07 457.89 407.19 458.03 C 407.62 462.74 406.99 467.49 407.85 472.17 C 408.01 475.37 408.00 478.57 408.12 481.77 C 408.19 483.32 408.26 484.88 408.34 486.45 C 407.53 486.76 406.72 487.07 405.92 487.39 C 402.93 488.51 399.88 489.45 396.85 490.44 C 396.74 490.11 396.53 489.45 396.42 489.12 C 399.82 488.00 403.39 487.26 406.57 485.57 C 407.82 478.49 405.56 471.26 405.83 464.09 C 403.79 464.10 401.71 464.11 399.75 464.75 C 395.80 466.10 391.57 465.84 387.50 466.48 C 386.79 470.82 388.08 475.45 386.09 479.54 C 386.00 477.10 385.92 474.67 385.83 472.24 C 385.88 469.41 385.74 466.58 385.19 463.81 C 385.51 463.70 386.14 463.47 386.46 463.35 C 387.57 462.94 388.70 462.58 389.81 462.17 Z" />
</g>
<g id="#006dd5ff">
<path fill="#006dd5" opacity="1.00" d=" M 747.54 458.17 C 756.16 457.68 764.81 457.72 773.45 457.66 C 773.18 457.95 772.64 458.52 772.36 458.81 C 768.94 462.02 766.55 466.29 764.86 470.64 C 761.56 475.84 758.02 480.93 754.57 486.06 C 752.95 484.17 751.31 482.32 749.65 480.49 C 747.94 481.66 746.22 482.82 744.48 483.95 C 744.26 482.79 744.04 481.63 743.84 480.48 C 742.85 481.20 741.93 482.15 740.65 482.25 C 738.16 482.37 736.71 484.59 735.00 486.08 C 734.53 485.76 733.58 485.11 733.10 484.79 C 734.07 482.11 735.82 479.72 736.15 476.84 C 739.32 470.31 744.18 464.64 747.54 458.17 Z" />
</g>
<g id="#ebaf4afe">
<path fill="#ebaf4a" opacity="1.00" d=" M 325.39 463.41 C 328.43 460.32 333.50 458.09 337.66 460.20 C 335.39 461.88 332.75 462.88 330.08 463.72 C 332.41 463.66 334.75 463.55 337.08 463.39 C 338.80 464.53 340.61 465.80 342.80 465.41 C 346.40 464.96 349.61 466.81 352.62 468.51 C 351.94 471.18 356.75 471.49 356.57 474.07 C 356.53 474.58 356.46 475.58 356.42 476.08 C 346.68 472.52 336.64 469.88 326.79 466.66 L 327.10 466.15 C 327.25 465.93 327.54 465.49 327.69 465.27 C 326.92 464.65 326.15 464.03 325.39 463.41 Z" />
</g>
<g id="#003f98eb">
<path fill="#003f98" opacity="0.92" d=" M 764.86 470.64 C 766.55 466.29 768.94 462.02 772.36 458.81 C 770.64 463.13 767.85 467.08 764.86 470.64 Z" />
</g>
<g id="#b46921fe">
<path fill="#b46921" opacity="1.00" d=" M 304.12 460.08 L 304.58 460.21 C 312.26 461.55 319.48 464.63 327.10 466.15 L 326.79 466.66 C 326.61 466.95 326.26 467.55 326.09 467.84 C 325.63 475.37 327.19 482.83 327.02 490.37 C 319.72 487.55 311.90 485.69 305.10 481.84 C 303.96 474.65 303.90 467.34 304.12 460.08 Z" />
</g>
<g id="#edb348fe">
<path fill="#edb348" opacity="1.00" d=" M 367.43 469.39 C 373.02 466.51 379.41 466.13 385.19 463.81 C 385.74 466.58 385.88 469.41 385.83 472.24 C 385.55 470.90 385.26 469.58 384.96 468.27 C 384.67 468.59 384.08 469.23 383.79 469.56 C 380.42 470.72 376.99 471.69 373.60 472.77 C 371.37 471.51 368.81 472.14 366.42 472.38 C 366.80 471.39 367.17 470.41 367.43 469.39 Z" />
</g>
<g id="#fcf6c4fd">
<path fill="#fcf6c4" opacity="1.00" d=" M 399.75 464.75 C 401.71 464.11 403.79 464.10 405.83 464.09 C 405.56 471.26 407.82 478.49 406.57 485.57 C 403.39 487.26 399.82 488.00 396.42 489.12 C 396.53 489.45 396.74 490.11 396.85 490.44 C 393.76 491.51 390.64 492.49 387.49 493.35 L 386.91 492.92 C 386.76 491.50 386.68 490.09 386.61 488.68 C 386.47 485.63 386.08 482.59 386.09 479.54 C 388.08 475.45 386.79 470.82 387.50 466.48 C 391.57 465.84 395.80 466.10 399.75 464.75 Z" />
</g>
<g id="#b04c07fe">
<path fill="#b04c07" opacity="1.00" d=" M 407.85 472.17 C 408.24 469.23 407.02 465.68 408.88 463.17 C 409.17 468.40 408.76 473.67 409.40 478.89 C 409.75 481.68 409.98 484.49 409.73 487.31 C 409.07 485.49 408.47 483.66 408.12 481.77 C 408.00 478.57 408.01 475.37 407.85 472.17 Z" />
</g>
<g id="#0061cdff">
<path fill="#0061cd" opacity="1.00" d=" M 699.23 480.22 C 700.06 475.10 699.33 469.85 700.56 464.77 C 701.68 467.31 703.03 470.07 701.45 472.75 C 704.16 471.72 706.92 470.78 709.58 469.59 C 710.18 470.06 710.80 470.54 711.42 471.02 C 714.78 470.70 717.70 473.14 721.15 472.64 C 721.45 475.20 722.72 477.44 724.34 479.41 C 724.11 482.46 724.28 485.51 724.33 488.57 C 724.16 490.52 723.88 492.46 723.93 494.44 C 726.45 492.65 727.34 489.56 729.24 487.24 C 731.74 483.90 733.52 480.06 736.15 476.84 C 735.82 479.72 734.07 482.11 733.10 484.79 C 733.58 485.11 734.53 485.76 735.00 486.08 C 736.71 484.59 738.16 482.37 740.65 482.25 C 741.93 482.15 742.85 481.20 743.84 480.48 C 744.04 481.63 744.26 482.79 744.48 483.95 C 746.22 482.82 747.94 481.66 749.65 480.49 C 751.31 482.32 752.95 484.17 754.57 486.06 C 751.30 491.08 747.84 495.99 744.58 501.01 C 745.17 501.79 745.78 502.57 746.39 503.36 C 744.36 502.44 742.15 502.47 739.98 502.60 C 737.97 502.79 736.43 501.29 734.79 500.40 C 731.56 501.91 727.08 501.19 725.78 497.49 C 725.00 497.73 724.24 497.99 723.49 498.25 C 722.62 497.45 721.75 496.65 720.90 495.86 C 720.54 497.27 720.18 498.68 719.81 500.10 C 718.53 499.63 717.68 498.64 717.04 497.49 C 714.82 497.63 712.60 497.40 710.53 496.59 C 709.64 497.44 708.76 498.30 707.89 499.17 C 706.18 498.69 704.52 499.36 702.94 499.93 C 699.78 498.87 698.56 495.90 698.58 492.77 C 698.99 488.59 698.53 484.37 699.23 480.22 Z" />
</g>
<g id="#3c20147e">
<path fill="#3c2014" opacity="0.49" d=" M 272.19 467.78 C 272.61 472.55 273.18 477.33 272.91 482.14 C 272.14 477.40 271.77 472.57 272.19 467.78 Z" />
</g>
<g id="#f4c25ffe">
<path fill="#f4c25f" opacity="1.00" d=" M 356.57 474.07 C 356.75 471.49 351.94 471.18 352.62 468.51 C 355.25 469.84 358.04 470.99 361.00 471.34 C 363.28 471.36 365.33 470.12 367.43 469.39 C 367.17 470.41 366.80 471.39 366.42 472.38 C 368.81 472.14 371.37 471.51 373.60 472.77 C 369.42 474.10 365.21 475.33 361.04 476.66 C 359.48 476.77 357.92 476.84 356.36 476.89 L 356.42 476.08 C 356.46 475.58 356.53 474.58 356.57 474.07 Z" />
</g>
<g id="#a94b05fe">
<path fill="#a94b05" opacity="1.00" d=" M 383.79 469.56 C 384.08 469.23 384.67 468.59 384.96 468.27 C 385.26 469.58 385.55 470.90 385.83 472.24 C 385.92 474.67 386.00 477.10 386.09 479.54 C 386.08 482.59 386.47 485.63 386.61 488.68 C 386.47 490.37 386.00 492.02 385.35 493.59 C 384.79 485.58 384.86 477.53 383.79 469.56 Z" />
</g>
<g id="#0061ccfe">
<path fill="#0061cc" opacity="1.00" d=" M 623.66 490.57 C 625.79 482.45 629.89 474.51 636.14 468.83 C 634.22 473.36 630.50 476.86 628.90 481.57 C 632.65 479.85 636.76 480.52 640.74 480.47 C 641.35 481.19 641.97 481.92 642.59 482.65 C 642.78 481.63 642.97 480.61 643.19 479.60 C 643.89 479.92 644.59 480.23 645.31 480.57 C 646.11 480.29 646.91 480.01 647.72 479.75 C 649.44 481.24 651.55 482.10 653.73 482.70 C 653.54 483.65 653.36 484.62 653.20 485.59 C 654.23 485.12 655.27 484.65 656.31 484.16 C 655.55 485.25 654.92 486.48 653.88 487.35 C 649.15 490.99 648.38 497.72 647.65 503.26 C 647.30 501.96 646.94 500.68 646.41 499.47 C 645.03 498.73 643.41 498.74 641.91 498.50 C 641.54 497.87 641.19 497.26 640.85 496.65 C 637.18 497.03 633.51 494.85 630.03 496.85 C 628.17 496.09 626.18 495.64 624.21 496.20 C 624.01 494.32 623.80 492.44 623.66 490.57 Z" />
</g>
<g id="#be6f22fe">
<path fill="#be6f22" opacity="1.00" d=" M 373.60 472.77 C 376.99 471.69 380.42 470.72 383.79 469.56 C 384.86 477.53 384.79 485.58 385.35 493.59 C 386.00 492.02 386.47 490.37 386.61 488.68 C 386.68 490.09 386.76 491.50 386.91 492.92 L 387.49 493.35 C 387.88 493.57 388.65 494.03 389.04 494.25 C 395.25 492.98 401.24 490.83 407.26 488.85 C 406.92 488.48 406.25 487.75 405.92 487.39 C 406.72 487.07 407.53 486.76 408.34 486.45 C 408.26 484.88 408.19 483.32 408.12 481.77 C 408.47 483.66 409.07 485.49 409.73 487.31 C 411.14 487.02 412.56 487.07 413.96 487.42 C 414.31 487.27 415.02 486.98 415.38 486.84 C 416.23 487.31 417.08 487.78 417.95 488.26 C 420.03 487.88 422.13 487.56 424.24 487.31 C 424.87 484.95 425.58 482.62 426.28 480.29 C 427.19 482.48 428.96 483.97 431.09 484.93 C 431.48 486.12 431.62 487.49 432.49 488.47 C 433.48 487.86 434.43 487.18 435.39 486.52 C 436.59 486.89 437.79 487.26 439.00 487.64 C 438.41 486.71 437.83 485.79 437.26 484.87 C 437.60 484.69 438.30 484.33 438.64 484.15 C 438.95 483.12 439.26 482.10 439.58 481.08 C 439.98 486.18 439.29 491.39 440.69 496.38 C 441.24 504.35 441.31 512.35 441.08 520.34 C 440.56 518.55 439.97 516.78 439.40 515.02 C 438.93 516.84 438.50 518.67 438.12 520.51 C 436.17 519.03 433.79 519.17 431.52 519.63 C 431.46 518.66 431.40 517.71 431.33 516.76 C 428.40 519.83 431.54 525.47 428.75 528.76 C 425.93 530.52 422.61 531.23 419.58 532.54 C 416.28 533.74 413.08 535.74 409.44 535.46 C 415.38 532.51 421.75 530.60 427.80 527.92 L 427.79 527.40 C 428.08 522.71 427.68 518.03 427.81 513.34 C 421.15 515.73 414.50 518.18 407.75 520.31 C 407.69 525.36 407.98 530.40 408.29 535.45 C 407.86 535.44 406.99 535.42 406.55 535.41 C 405.66 529.42 406.00 523.37 406.27 517.36 C 405.61 517.67 404.96 517.98 404.31 518.30 C 403.73 517.58 403.16 516.88 402.59 516.18 C 402.51 517.00 402.42 517.83 402.35 518.68 C 401.40 518.70 400.45 518.74 399.50 518.78 C 398.93 519.29 398.37 519.80 397.82 520.33 C 397.44 520.15 396.68 519.80 396.30 519.62 C 394.28 521.44 393.02 524.63 389.98 524.89 C 387.11 525.18 384.13 526.87 381.29 525.56 C 381.33 526.49 381.37 527.43 381.40 528.38 C 379.56 527.63 378.74 525.24 376.84 524.85 C 372.38 526.04 369.61 520.85 365.15 521.29 C 365.24 519.70 365.34 518.12 365.45 516.55 C 364.57 516.60 363.70 516.67 362.84 516.74 C 362.54 507.51 362.20 498.28 362.37 489.05 C 362.38 484.89 362.79 480.56 361.04 476.66 C 365.21 475.33 369.42 474.10 373.60 472.77 Z" />
</g>
<g id="#fc720dfe">
<path fill="#fc720d" opacity="1.00" d=" M 1068.54 469.43 C 1068.56 471.35 1067.90 473.16 1067.07 474.86 C 1068.31 474.01 1069.59 473.19 1070.88 472.39 C 1071.86 472.80 1072.85 473.22 1073.87 473.63 C 1075.53 472.93 1077.31 472.46 1079.13 472.85 C 1082.41 473.58 1086.85 470.19 1088.58 474.48 C 1089.19 474.17 1089.82 473.88 1090.47 473.60 C 1090.74 474.11 1091.29 475.14 1091.56 475.66 C 1093.38 475.03 1095.19 474.35 1096.94 473.50 C 1091.62 483.88 1082.38 492.12 1071.58 496.46 C 1061.83 500.33 1051.20 501.34 1040.80 500.89 C 1040.15 503.85 1039.91 506.87 1039.84 509.89 C 1038.73 509.43 1037.63 508.96 1036.55 508.51 C 1036.46 507.87 1036.39 507.23 1036.34 506.61 C 1034.69 506.41 1033.62 505.19 1032.64 504.00 C 1032.62 505.21 1032.61 506.42 1032.61 507.65 C 1032.36 507.97 1031.85 508.61 1031.60 508.93 C 1031.39 507.29 1031.18 505.66 1030.99 504.04 C 1030.18 507.02 1027.98 509.01 1024.81 508.93 C 1024.08 506.74 1023.64 504.14 1021.60 502.77 C 1018.18 501.18 1014.67 504.42 1011.31 502.70 C 1011.23 496.30 1013.03 489.79 1011.26 483.48 C 1011.18 479.43 1012.26 475.40 1012.27 471.33 L 1012.46 472.01 C 1013.97 475.64 1012.73 479.61 1013.59 483.33 C 1014.96 486.31 1018.58 483.88 1020.95 483.84 C 1023.41 482.94 1025.80 484.15 1028.22 484.45 C 1029.76 484.02 1031.13 482.58 1032.84 483.07 C 1035.63 483.63 1038.35 484.53 1041.05 485.48 C 1039.86 481.62 1040.04 477.55 1041.62 473.84 C 1041.85 475.22 1042.07 476.61 1042.28 478.01 C 1042.16 478.94 1041.93 480.80 1041.81 481.73 C 1046.74 481.62 1051.86 481.60 1056.48 479.63 C 1061.64 477.88 1065.44 473.73 1068.54 469.43 Z" />
</g>
<g id="#0047aefe">
<path fill="#0047ae" opacity="1.00" d=" M 613.89 470.40 C 617.94 477.92 615.62 486.88 615.86 495.05 C 614.95 502.64 614.79 510.29 613.95 517.89 C 613.64 520.95 614.37 524.21 616.34 526.63 C 617.53 527.52 619.20 527.16 620.61 527.47 C 621.16 531.96 620.40 536.47 620.77 540.97 C 615.31 543.49 609.03 543.57 603.12 543.32 C 597.13 543.21 591.80 538.79 590.37 533.01 C 585.07 536.91 579.75 541.33 573.01 542.42 C 565.82 543.50 557.45 543.53 551.78 538.22 C 547.69 535.08 545.52 530.05 544.95 525.03 C 543.61 517.01 545.94 508.44 551.29 502.30 C 558.94 493.29 570.83 488.83 582.36 487.83 C 575.12 490.51 566.51 491.06 560.95 497.02 C 558.86 498.85 557.97 501.53 557.19 504.10 C 560.66 501.82 564.60 504.01 568.38 503.72 C 570.11 503.57 570.28 505.92 571.75 506.21 C 575.83 502.97 580.61 500.84 585.37 498.81 C 587.34 498.13 589.83 497.95 591.53 499.37 C 592.28 501.61 592.57 503.97 592.98 506.29 C 594.53 505.87 596.12 506.14 597.70 506.20 C 599.85 505.86 601.81 504.70 604.00 504.49 C 606.78 504.79 609.05 506.70 611.31 508.20 C 611.69 507.28 612.08 506.36 612.48 505.45 C 612.90 505.94 613.34 506.44 613.78 506.94 C 613.75 502.07 614.76 497.28 614.86 492.43 C 615.18 485.06 615.18 477.68 613.89 470.40 M 576.58 504.63 C 572.12 506.95 569.19 511.91 569.62 516.97 C 569.49 521.79 574.32 526.06 579.12 525.07 C 583.08 524.03 586.68 521.32 588.58 517.68 C 590.10 513.27 589.83 508.53 590.52 503.97 C 590.57 502.66 591.19 501.22 590.52 499.99 C 585.79 501.22 580.74 501.81 576.58 504.63 Z" />
</g>
<g id="#fd690dfe">
<path fill="#fd690d" opacity="1.00" d=" M 1162.40 471.40 C 1166.29 482.49 1162.92 494.32 1162.80 505.70 L 1162.68 505.69 C 1162.31 505.65 1161.58 505.57 1161.22 505.53 C 1160.09 510.64 1160.33 516.09 1158.03 520.89 C 1158.42 521.33 1159.21 522.20 1159.60 522.63 C 1156.50 522.61 1153.42 523.19 1150.33 522.89 C 1149.77 523.43 1149.23 523.97 1148.70 524.52 C 1147.90 523.71 1147.12 522.90 1146.36 522.10 C 1146.34 523.04 1146.35 524.00 1146.37 524.96 C 1145.54 525.15 1144.69 525.59 1143.95 525.00 C 1141.29 523.37 1138.15 523.16 1135.16 522.65 C 1136.08 520.41 1136.93 518.09 1136.80 515.64 C 1137.94 510.54 1138.21 505.34 1138.63 500.15 C 1132.33 500.17 1125.93 502.08 1121.02 506.10 C 1116.92 509.46 1114.79 515.33 1116.52 520.46 C 1115.90 522.53 1115.33 524.62 1114.87 526.73 C 1113.62 525.45 1112.65 523.74 1110.98 523.02 C 1109.70 523.14 1108.52 523.61 1107.33 523.97 C 1107.83 524.82 1108.35 525.68 1108.88 526.54 C 1107.74 526.56 1106.60 526.58 1105.48 526.62 C 1105.43 525.82 1105.40 525.02 1105.39 524.24 C 1104.30 524.51 1103.26 525.18 1102.13 524.91 C 1099.12 524.12 1096.29 525.75 1093.58 526.79 C 1093.59 525.77 1093.62 524.76 1093.65 523.75 C 1092.18 524.14 1091.88 525.66 1091.33 526.85 C 1090.05 517.85 1092.04 508.07 1098.32 501.25 C 1108.34 489.67 1124.76 486.67 1139.37 487.05 C 1139.32 483.63 1137.83 480.35 1134.60 478.90 C 1138.16 478.74 1139.74 482.27 1142.53 483.80 C 1144.21 481.64 1146.29 479.78 1149.01 479.07 C 1151.81 480.36 1154.90 482.14 1158.01 480.66 C 1157.05 480.14 1156.11 479.64 1155.18 479.15 C 1156.59 479.19 1158.02 479.23 1159.46 479.28 C 1159.76 482.22 1159.43 485.31 1160.57 488.11 C 1162.65 482.77 1162.15 477.00 1162.40 471.40 Z" />
</g>
<g id="#004ab2fe">
<path fill="#004ab2" opacity="1.00" d=" M 878.57 480.89 C 881.23 476.33 887.19 475.36 892.02 475.83 C 893.77 475.91 896.33 476.72 895.97 478.97 C 895.71 483.57 895.04 488.14 894.85 492.74 C 893.59 498.28 893.32 504.40 895.22 509.82 C 896.19 508.35 897.32 506.94 899.08 506.41 C 900.19 507.48 901.27 508.61 902.60 509.45 C 904.05 509.42 905.32 508.47 906.66 507.97 C 906.13 508.72 905.60 509.48 905.09 510.25 C 906.76 509.76 908.39 508.98 910.16 508.83 C 912.65 509.25 914.25 511.68 914.71 514.01 C 915.52 518.01 916.52 522.01 916.58 526.12 C 915.88 529.74 915.89 533.44 915.58 537.11 C 915.34 535.51 915.07 533.93 914.83 532.35 C 912.99 535.11 909.44 535.50 906.80 537.17 C 905.92 536.03 905.14 534.83 904.46 533.59 C 903.42 534.79 902.31 535.94 901.11 536.98 C 900.08 536.51 899.06 536.06 898.05 535.61 C 896.87 537.29 895.76 539.02 894.73 540.79 C 894.01 540.03 893.30 539.28 892.60 538.53 C 892.78 538.04 893.14 537.07 893.33 536.58 C 891.87 534.77 890.14 533.21 888.10 532.09 C 888.09 532.79 888.08 534.20 888.07 534.90 C 888.77 534.95 890.16 535.05 890.86 535.10 C 889.67 539.44 890.49 544.74 887.02 548.16 C 887.89 545.14 888.78 542.12 889.08 538.99 C 889.83 537.54 888.73 536.39 887.96 535.36 C 887.67 538.39 884.17 539.40 881.89 540.71 C 877.65 543.11 872.74 543.04 868.04 542.85 C 856.93 541.98 847.43 533.27 844.53 522.68 C 840.48 508.84 841.56 492.92 849.20 480.53 C 848.46 483.14 847.77 485.78 846.80 488.32 C 845.01 490.98 845.01 494.16 844.94 497.24 C 843.35 501.71 842.92 506.98 844.84 511.41 C 847.07 509.22 849.20 506.90 851.74 505.05 C 852.56 505.82 853.40 506.59 854.25 507.37 C 857.43 505.71 861.03 505.49 864.49 504.78 C 864.92 505.43 865.37 506.08 865.83 506.74 C 866.63 505.05 867.49 503.39 868.34 501.72 C 867.81 507.78 868.14 514.73 872.62 519.36 C 877.59 524.53 887.12 522.52 890.38 516.41 C 892.03 513.91 892.02 510.84 892.24 507.98 C 893.18 497.76 893.85 487.52 894.86 477.31 C 889.11 475.84 883.27 477.43 878.57 480.89 Z" />
</g>
<g id="#007edbfe">
<path fill="#007edb" opacity="1.00" d=" M 232.66 480.42 C 233.96 479.08 235.33 477.82 236.82 476.69 C 237.13 478.33 235.30 479.27 234.81 480.70 C 230.80 488.67 233.40 498.61 239.37 504.88 C 246.87 513.06 257.35 517.71 267.57 521.53 C 269.68 522.43 271.97 522.87 274.28 522.89 C 274.45 523.43 274.63 523.98 274.83 524.54 C 275.18 529.70 274.48 535.03 275.96 540.05 C 279.72 542.76 284.31 544.25 288.44 546.41 C 285.31 546.96 282.51 545.23 279.76 544.06 C 275.74 542.19 271.36 541.33 267.23 539.78 C 257.40 536.20 247.86 531.70 239.22 525.79 C 231.64 520.37 224.73 513.10 222.20 503.92 C 221.35 498.44 221.07 492.60 222.40 487.20 C 225.05 485.88 226.22 483.12 227.99 480.94 C 229.44 480.32 231.11 480.55 232.66 480.42 Z" />
</g>
<g id="#cd802dfe">
<path fill="#cd802d" opacity="1.00" d=" M 356.36 476.89 C 357.92 476.84 359.48 476.77 361.04 476.66 C 362.79 480.56 362.38 484.89 362.37 489.05 C 362.20 498.28 362.54 507.51 362.84 516.74 C 363.26 527.82 362.68 538.91 362.69 550.00 C 362.72 553.69 362.54 557.39 362.18 561.07 C 362.75 561.82 363.33 562.58 363.91 563.34 L 362.96 563.67 C 362.77 563.63 362.40 563.56 362.21 563.52 C 361.66 563.41 360.55 563.18 359.99 563.06 L 359.50 562.58 L 358.93 562.01 C 358.77 560.28 358.66 558.55 358.57 556.82 C 358.53 545.44 357.96 534.07 357.88 522.70 C 358.19 519.35 357.84 516.00 357.47 512.69 C 357.35 500.75 356.81 488.81 356.36 476.89 Z" />
</g>
<g id="#0040a5fd">
<path fill="#0040a5" opacity="1.00" d=" M 220.35 488.37 C 222.16 484.68 224.15 480.92 227.26 478.17 C 225.54 481.12 223.64 483.99 222.40 487.20 C 221.07 492.60 221.35 498.44 222.20 503.92 C 224.73 513.10 231.64 520.37 239.22 525.79 C 247.86 531.70 257.40 536.20 267.23 539.78 C 271.36 541.33 275.74 542.19 279.76 544.06 C 282.51 545.23 285.31 546.96 288.44 546.41 C 294.91 549.38 301.73 551.51 308.41 553.99 C 307.13 554.52 305.85 555.05 304.58 555.59 C 304.03 556.82 303.49 558.06 302.95 559.31 C 300.42 557.77 297.56 557.35 294.75 558.38 C 278.72 555.38 262.89 550.76 248.10 543.84 C 237.35 538.28 226.91 530.69 221.43 519.58 C 216.69 510.00 215.59 498.16 220.35 488.37 Z" />
</g>
<g id="#005ac5fe">
<path fill="#005ac5" opacity="1.00" d=" M 587.65 478.86 C 592.30 479.29 592.86 484.71 593.85 488.27 C 594.15 487.59 594.46 486.91 594.77 486.24 C 595.44 486.61 596.11 486.99 596.81 487.37 C 599.30 486.76 601.86 487.87 604.35 486.93 C 604.07 486.07 603.80 485.23 603.54 484.39 C 605.39 484.42 607.03 485.20 608.23 486.63 C 609.51 486.55 610.81 486.46 612.10 486.35 C 612.39 485.49 612.70 484.64 613.02 483.79 C 613.92 486.60 613.93 489.62 614.86 492.43 C 614.76 497.28 613.75 502.07 613.78 506.94 C 613.34 506.44 612.90 505.94 612.48 505.45 C 612.08 506.36 611.69 507.28 611.31 508.20 C 609.05 506.70 606.78 504.79 604.00 504.49 C 601.81 504.70 599.85 505.86 597.70 506.20 C 596.12 506.14 594.53 505.87 592.98 506.29 C 592.57 503.97 592.28 501.61 591.53 499.37 C 589.83 497.95 587.34 498.13 585.37 498.81 C 580.61 500.84 575.83 502.97 571.75 506.21 C 570.28 505.92 570.11 503.57 568.38 503.72 C 564.60 504.01 560.66 501.82 557.19 504.10 C 557.97 501.53 558.86 498.85 560.95 497.02 C 566.51 491.06 575.12 490.51 582.36 487.83 C 585.26 486.93 588.35 487.25 591.35 487.14 C 591.52 483.89 590.11 480.93 587.65 478.86 Z" />
<path fill="#005ac5" opacity="1.00" d=" M 895.22 509.82 C 893.32 504.40 893.59 498.28 894.85 492.74 C 894.95 493.45 895.14 494.87 895.23 495.59 C 895.99 495.22 896.77 494.86 897.56 494.51 C 898.14 495.16 898.73 495.82 899.33 496.49 C 903.08 494.95 907.08 495.11 910.55 497.25 C 911.06 496.19 911.58 495.15 912.12 494.11 C 913.24 495.37 914.41 496.61 915.61 497.81 C 916.37 496.52 917.14 495.23 917.94 493.95 C 918.28 496.32 918.56 498.72 918.57 501.13 C 917.61 506.02 918.19 511.05 917.10 515.92 C 916.56 519.29 916.94 522.72 916.58 526.12 C 916.52 522.01 915.52 518.01 914.71 514.01 C 914.25 511.68 912.65 509.25 910.16 508.83 C 908.39 508.98 906.76 509.76 905.09 510.25 C 905.60 509.48 906.13 508.72 906.66 507.97 C 905.32 508.47 904.05 509.42 902.60 509.45 C 901.27 508.61 900.19 507.48 899.08 506.41 C 897.32 506.94 896.19 508.35 895.22 509.82 Z" />
</g>
<g id="#005dc8fe">
<path fill="#005dc8" opacity="1.00" d=" M 863.66 479.48 C 864.07 480.77 864.50 482.07 864.94 483.37 C 865.61 483.14 866.29 482.91 867.00 482.69 C 867.89 483.72 868.32 485.00 868.39 486.36 C 869.47 486.01 870.59 485.92 871.71 486.18 C 872.95 484.01 874.80 482.36 877.35 481.94 C 872.14 487.26 869.27 494.41 868.34 501.72 C 867.49 503.39 866.63 505.05 865.83 506.74 C 865.37 506.08 864.92 505.43 864.49 504.78 C 861.03 505.49 857.43 505.71 854.25 507.37 C 853.40 506.59 852.56 505.82 851.74 505.05 C 849.20 506.90 847.07 509.22 844.84 511.41 C 842.92 506.98 843.35 501.71 844.94 497.24 C 845.01 494.16 845.01 490.98 846.80 488.32 C 849.06 486.51 850.07 483.78 851.52 481.37 C 853.86 479.68 854.18 485.46 856.56 483.59 C 858.53 481.59 860.85 480.04 863.66 479.48 Z" />
</g>
<g id="#005ec5fd">
<path fill="#005ec5" opacity="1.00" d=" M 974.65 478.88 C 977.44 481.31 975.95 485.21 976.08 488.41 C 978.21 488.44 980.34 488.46 982.47 488.44 C 983.48 487.42 984.50 486.40 985.54 485.40 C 985.80 485.98 986.34 487.13 986.61 487.71 C 990.75 488.22 995.47 487.41 998.59 490.86 C 997.14 493.66 995.85 496.83 993.36 498.84 C 988.86 500.81 984.68 503.54 979.73 504.35 C 978.50 502.06 975.96 502.28 973.76 502.35 C 973.61 502.77 973.31 503.59 973.16 504.01 C 971.55 502.91 969.97 501.79 968.43 500.63 C 966.57 504.60 960.90 504.82 958.27 501.57 C 957.43 502.32 956.60 503.07 955.77 503.81 C 955.72 502.60 956.00 501.42 956.35 500.27 C 954.41 500.10 952.50 499.91 950.59 499.72 C 957.45 499.01 964.66 497.60 970.17 493.15 C 974.08 489.70 976.27 484.00 974.65 478.88 Z" />
</g>
<g id="#005cc6ff">
<path fill="#005cc6" opacity="1.00" d=" M 812.07 481.80 C 812.48 481.96 813.30 482.29 813.71 482.46 C 814.01 484.64 814.13 486.84 814.31 489.04 C 815.41 488.36 816.26 487.39 816.95 486.30 C 818.28 486.90 819.60 487.56 821.04 487.92 C 822.94 487.68 824.55 486.48 826.25 485.66 C 826.77 485.90 827.30 486.15 827.84 486.41 C 827.97 485.87 828.22 484.80 828.35 484.26 C 830.85 486.52 833.33 488.82 835.70 491.24 C 836.76 494.74 836.46 498.49 836.51 502.11 C 835.83 509.12 835.20 516.19 835.58 523.25 C 835.45 522.75 835.19 521.77 835.06 521.27 C 835.81 514.95 835.18 508.60 834.83 502.28 C 834.15 503.06 833.49 503.84 832.83 504.64 C 829.34 503.59 825.61 502.85 822.16 504.43 C 821.56 503.80 820.98 503.19 820.41 502.58 C 820.07 502.91 819.38 503.56 819.04 503.89 C 818.64 503.55 817.83 502.85 817.43 502.50 C 815.70 504.01 814.33 505.86 813.31 507.91 C 813.26 505.38 813.03 502.86 812.43 500.41 C 804.31 500.85 794.94 503.94 791.42 511.96 C 790.82 509.50 790.28 506.68 788.32 504.93 C 787.02 504.76 785.71 504.83 784.41 504.84 C 783.80 505.34 783.21 505.86 782.63 506.38 C 781.97 505.77 781.33 505.16 780.69 504.57 C 778.64 504.52 776.61 504.11 774.90 502.94 C 777.42 499.36 781.38 497.21 784.00 493.73 C 785.94 492.15 788.48 491.50 790.81 490.68 C 798.01 488.51 805.49 486.99 813.05 487.16 C 812.72 485.37 812.37 483.58 812.07 481.80 Z" />
</g>
<g id="#005fc9fe">
<path fill="#005fc9" opacity="1.00" d=" M 936.32 483.34 C 936.82 484.12 937.34 484.90 937.88 485.68 C 940.67 484.73 943.54 484.01 946.48 483.62 C 947.32 484.74 947.63 486.95 949.46 486.66 C 949.16 485.63 948.83 484.59 948.54 483.57 C 951.07 484.27 952.15 486.55 952.27 489.02 C 951.43 492.11 950.68 495.23 950.38 498.42 C 950.14 497.55 949.66 495.81 949.43 494.95 C 949.12 497.46 948.93 500.00 948.79 502.53 C 947.60 502.03 946.42 501.52 945.25 501.03 C 944.44 501.76 943.65 502.50 942.87 503.25 C 938.79 500.11 934.53 504.51 930.14 503.35 C 929.13 503.19 928.16 502.96 927.19 502.74 C 926.95 504.20 926.71 505.66 926.49 507.14 C 925.91 502.32 926.31 497.44 925.63 492.63 C 926.31 490.13 926.58 487.32 928.11 485.18 C 928.12 486.72 928.16 488.27 928.21 489.82 C 930.51 488.09 932.31 483.41 935.74 485.38 C 935.89 484.87 936.17 483.85 936.32 483.34 Z" />
</g>
<g id="#531c06ff">
<path fill="#531c06" opacity="1.00" d=" M 344.41 484.32 C 345.77 483.38 347.46 483.93 348.99 483.93 C 349.04 486.21 349.70 488.65 348.86 490.86 C 341.42 504.23 330.11 514.76 320.68 526.68 C 318.52 529.16 316.65 531.99 314.00 533.99 C 312.21 535.07 310.36 533.84 308.84 532.91 L 309.50 532.63 C 309.92 532.53 310.78 532.32 311.21 532.22 C 311.59 531.93 312.34 531.35 312.72 531.06 C 312.76 531.59 312.84 532.65 312.87 533.18 C 317.58 528.36 321.37 522.75 325.74 517.64 C 327.69 514.78 331.00 512.50 331.10 508.75 C 335.17 503.04 339.92 497.87 344.27 492.38 C 345.93 490.09 347.71 487.74 348.19 484.88 C 345.45 484.94 343.31 486.76 341.02 487.98 C 333.25 492.78 325.66 497.86 318.28 503.24 L 316.64 503.44 C 317.02 501.99 318.44 501.36 319.51 500.52 C 327.61 494.83 335.91 489.41 344.41 484.32 Z" />
</g>
<g id="#f35812fd">
<path fill="#f35812" opacity="1.00" d=" M 1011.26 483.48 C 1013.03 489.79 1011.23 496.30 1011.31 502.70 C 1014.67 504.42 1018.18 501.18 1021.60 502.77 C 1023.64 504.14 1024.08 506.74 1024.81 508.93 C 1027.98 509.01 1030.18 507.02 1030.99 504.04 C 1031.18 505.66 1031.39 507.29 1031.60 508.93 C 1031.85 508.61 1032.36 507.97 1032.61 507.65 C 1032.61 506.42 1032.62 505.21 1032.64 504.00 C 1033.62 505.19 1034.69 506.41 1036.34 506.61 C 1036.39 507.23 1036.46 507.87 1036.55 508.51 C 1037.63 508.96 1038.73 509.43 1039.84 509.89 C 1038.85 515.59 1039.13 521.39 1038.29 527.11 C 1037.69 531.67 1038.28 536.35 1037.19 540.85 C 1026.73 541.60 1016.21 541.43 1005.80 542.64 C 1007.91 522.95 1009.40 503.20 1011.26 483.48 Z" />
</g>
<g id="#fd680cfe">
<path fill="#fd680c" opacity="1.00" d=" M 1177.37 483.30 C 1178.28 486.47 1178.44 489.77 1178.36 493.06 C 1178.67 491.88 1178.99 490.70 1179.34 489.54 C 1181.97 490.46 1184.69 491.10 1187.45 491.57 C 1187.61 490.42 1187.80 489.28 1187.99 488.14 C 1189.28 489.03 1190.59 489.92 1191.91 490.81 C 1193.53 490.20 1195.15 489.49 1196.88 489.17 C 1200.35 489.12 1199.59 493.54 1201.65 495.36 C 1203.83 497.31 1203.64 500.39 1203.73 503.07 C 1203.26 506.32 1202.79 509.58 1202.82 512.88 C 1201.61 511.59 1200.11 510.48 1198.27 511.12 C 1195.73 509.22 1192.52 509.14 1189.52 508.73 C 1188.95 509.47 1188.39 510.22 1187.86 510.98 C 1186.87 511.27 1185.91 511.58 1184.95 511.88 C 1184.58 512.73 1184.23 513.59 1183.88 514.46 C 1182.94 514.14 1182.03 513.84 1181.12 513.54 C 1180.13 514.58 1179.15 515.63 1178.18 516.68 C 1177.30 516.30 1176.43 515.93 1175.58 515.57 C 1175.29 514.40 1175.04 513.23 1174.81 512.07 C 1175.25 502.44 1176.68 492.91 1177.37 483.30 Z" />
</g>
<g id="#fcfcfbfe">
<path fill="#fcfcfb" opacity="1.00" d=" M 341.02 487.98 C 343.31 486.76 345.45 484.94 348.19 484.88 C 347.71 487.74 345.93 490.09 344.27 492.38 C 339.92 497.87 335.17 503.04 331.10 508.75 C 324.78 516.02 318.77 523.56 312.72 531.06 C 312.34 531.35 311.59 531.93 311.21 532.22 C 302.43 519.83 293.09 507.81 285.07 494.90 C 284.14 493.74 284.01 492.27 283.98 490.86 C 285.34 490.97 286.67 491.32 287.76 492.18 C 293.87 496.17 300.66 499.10 306.45 503.59 C 308.20 504.92 310.05 506.12 311.92 507.28 C 313.81 506.22 315.66 505.09 317.43 503.84 C 317.64 503.69 318.06 503.39 318.28 503.24 C 325.66 497.86 333.25 492.78 341.02 487.98 Z" />
</g>
<g id="#b45e15fe">
<path fill="#b45e15" opacity="1.00" d=" M 396.85 490.44 C 399.88 489.45 402.93 488.51 405.92 487.39 C 406.25 487.75 406.92 488.48 407.26 488.85 C 401.24 490.83 395.25 492.98 389.04 494.25 C 388.65 494.03 387.88 493.57 387.49 493.35 C 390.64 492.49 393.76 491.51 396.85 490.44 Z" />
</g>
<g id="#0047affe">
<path fill="#0047af" opacity="1.00" d=" M 647.65 503.26 C 648.38 497.72 649.15 490.99 653.88 487.35 C 649.98 494.03 648.32 502.17 650.19 509.76 C 652.00 517.02 658.68 522.76 666.12 523.49 C 670.03 523.63 674.05 523.19 677.66 521.59 C 680.34 520.38 683.42 519.69 685.32 517.26 C 686.13 522.90 686.48 528.64 687.65 534.25 C 688.22 535.51 686.96 536.40 686.02 536.93 C 674.67 543.53 660.72 544.86 648.03 542.04 C 636.25 539.35 626.73 529.59 623.67 518.00 C 624.58 514.49 625.32 510.50 628.66 508.45 C 631.83 511.59 636.55 509.98 640.28 511.78 C 642.97 512.93 646.07 511.99 648.57 510.74 C 649.28 508.31 647.93 505.71 647.65 503.26 Z" />
<path fill="#0047af" opacity="1.00" d=" M 696.17 522.97 C 696.94 517.23 696.19 511.37 697.59 505.72 C 697.69 507.54 697.86 509.37 698.02 511.21 C 701.39 510.94 704.54 512.84 707.95 512.29 C 712.07 511.79 716.17 512.65 720.08 513.89 C 719.87 522.51 719.42 531.22 717.58 539.66 C 710.11 539.38 702.73 540.82 695.28 540.66 C 694.86 534.74 696.15 528.89 696.17 522.97 Z" />
<path fill="#0047af" opacity="1.00" d=" M 724.93 512.01 C 727.10 512.98 728.10 515.19 729.26 517.11 C 732.57 517.97 735.65 519.73 739.16 519.66 C 740.10 518.56 741.06 517.48 742.04 516.41 C 744.07 519.48 748.03 519.63 751.35 519.45 C 751.85 520.66 752.35 521.87 752.87 523.08 C 754.97 522.16 754.87 519.78 755.20 517.86 C 760.64 525.84 765.54 534.18 770.60 542.40 C 760.88 541.10 751.01 542.45 741.27 541.63 C 736.79 534.66 733.10 527.17 728.92 520.00 C 727.55 517.36 725.84 514.86 724.93 512.01 Z" />
</g>
<g id="#300a00fe">
<path fill="#300a00" opacity="1.00" d=" M 283.55 490.69 C 284.66 490.56 285.76 490.44 286.87 490.31 C 292.45 493.81 298.34 496.75 303.90 500.28 C 306.55 502.03 308.97 504.18 311.92 505.46 C 313.95 505.56 315.48 502.44 317.43 503.84 C 315.66 505.09 313.81 506.22 311.92 507.28 C 310.05 506.12 308.20 504.92 306.45 503.59 C 300.66 499.10 293.87 496.17 287.76 492.18 C 286.67 491.32 285.34 490.97 283.98 490.86 C 284.01 492.27 284.14 493.74 285.07 494.90 C 293.09 507.81 302.43 519.83 311.21 532.22 C 310.78 532.32 309.92 532.53 309.50 532.63 C 301.43 521.89 293.59 510.92 286.40 499.56 C 284.90 496.83 282.29 494.02 283.55 490.69 Z" />
<path fill="#300a00" opacity="1.00" d=" M 312.72 531.06 C 318.77 523.56 324.78 516.02 331.10 508.75 C 331.00 512.50 327.69 514.78 325.74 517.64 C 321.37 522.75 317.58 528.36 312.87 533.18 C 312.84 532.65 312.76 531.59 312.72 531.06 Z" />
<path fill="#300a00" opacity="1.00" d=" M 407.75 520.31 C 414.50 518.18 421.15 515.73 427.81 513.34 C 427.68 518.03 428.08 522.71 427.79 527.40 C 427.12 523.33 427.81 519.04 426.39 515.13 C 421.52 516.49 416.91 518.59 412.06 520.01 C 410.99 520.54 408.98 520.45 408.88 522.03 C 408.23 526.49 408.46 531.06 409.44 535.46 C 409.15 535.46 408.58 535.45 408.29 535.45 C 407.98 530.40 407.69 525.36 407.75 520.31 Z" />
<path fill="#300a00" opacity="1.00" d=" M 357.59 537.02 C 357.81 532.24 356.78 527.41 357.88 522.70 C 357.96 534.07 358.53 545.44 358.57 556.82 C 358.32 557.34 357.81 558.40 357.56 558.93 C 357.86 551.63 357.44 544.32 357.59 537.02 Z" />
<path fill="#300a00" opacity="1.00" d=" M 274.83 524.54 C 276.03 527.39 276.28 530.50 277.06 533.48 L 278.10 533.88 C 286.72 537.04 295.40 540.05 304.19 542.71 C 322.53 548.87 340.84 555.15 358.93 562.01 L 359.50 562.58 C 358.86 565.81 358.27 569.11 358.68 572.41 C 352.74 569.22 346.16 567.55 339.91 565.09 C 329.29 561.74 318.97 557.53 308.41 553.99 C 301.73 551.51 294.91 549.38 288.44 546.41 C 284.31 544.25 279.72 542.76 275.96 540.05 C 274.48 535.03 275.18 529.70 274.83 524.54 Z" />
<path fill="#300a00" opacity="1.00" d=" M 387.60 554.59 C 405.58 548.11 423.62 541.82 441.61 535.36 C 441.49 535.71 441.26 536.40 441.15 536.75 C 433.40 540.05 425.29 542.45 417.39 545.38 C 409.15 548.70 400.65 551.31 392.29 554.29 C 383.64 557.16 375.45 561.31 366.68 563.83 C 365.46 564.32 364.17 563.91 362.96 563.67 L 363.91 563.34 C 371.87 560.59 379.79 557.74 387.60 554.59 Z" />
</g>
<g id="#2f1f197d">
<path fill="#2f1f19" opacity="0.49" d=" M 273.11 490.75 C 273.56 495.47 274.24 500.20 273.94 504.97 C 273.35 500.25 272.67 495.51 273.11 490.75 Z" />
</g>
<g id="#0056c2fe">
<path fill="#0056c2" opacity="1.00" d=" M 622.13 508.98 C 622.24 502.82 621.52 496.48 623.66 490.57 C 623.80 492.44 624.01 494.32 624.21 496.20 C 626.18 495.64 628.17 496.09 630.03 496.85 C 633.51 494.85 637.18 497.03 640.85 496.65 C 641.19 497.26 641.54 497.87 641.91 498.50 C 643.41 498.74 645.03 498.73 646.41 499.47 C 646.94 500.68 647.30 501.96 647.65 503.26 C 647.93 505.71 649.28 508.31 648.57 510.74 C 646.07 511.99 642.97 512.93 640.28 511.78 C 636.55 509.98 631.83 511.59 628.66 508.45 C 625.32 510.50 624.58 514.49 623.67 518.00 C 622.88 515.05 621.96 512.07 622.13 508.98 Z" />
</g>
<g id="#0054bfff">
<path fill="#0054bf" opacity="1.00" d=" M 697.59 505.72 C 697.79 501.39 697.55 497.01 698.58 492.77 C 698.56 495.90 699.78 498.87 702.94 499.93 C 704.52 499.36 706.18 498.69 707.89 499.17 C 708.76 498.30 709.64 497.44 710.53 496.59 C 712.60 497.40 714.82 497.63 717.04 497.49 C 717.68 498.64 718.53 499.63 719.81 500.10 C 720.18 498.68 720.54 497.27 720.90 495.86 C 721.75 496.65 722.62 497.45 723.49 498.25 C 724.24 497.99 725.00 497.73 725.78 497.49 C 727.08 501.19 731.56 501.91 734.79 500.40 C 736.43 501.29 737.97 502.79 739.98 502.60 C 742.15 502.47 744.36 502.44 746.39 503.36 C 749.09 508.33 752.24 513.04 755.20 517.86 C 754.87 519.78 754.97 522.16 752.87 523.08 C 752.35 521.87 751.85 520.66 751.35 519.45 C 748.03 519.63 744.07 519.48 742.04 516.41 C 741.06 517.48 740.10 518.56 739.16 519.66 C 735.65 519.73 732.57 517.97 729.26 517.11 C 728.10 515.19 727.10 512.98 724.93 512.01 L 724.33 511.64 C 723.63 510.33 722.89 509.01 722.56 507.57 C 722.56 507.26 722.55 506.64 722.55 506.32 C 721.85 506.69 721.16 507.07 720.48 507.45 C 720.29 509.59 720.12 511.74 720.08 513.89 C 716.17 512.65 712.07 511.79 707.95 512.29 C 704.54 512.84 701.39 510.94 698.02 511.21 C 697.86 509.37 697.69 507.54 697.59 505.72 Z" />
</g>
<g id="#0054bcfe">
<path fill="#0054bc" opacity="1.00" d=" M 927.55 523.09 C 923.61 513.45 923.16 502.70 925.63 492.63 C 926.31 497.44 925.91 502.32 926.49 507.14 C 926.71 505.66 926.95 504.20 927.19 502.74 C 928.16 502.96 929.13 503.19 930.14 503.35 C 934.53 504.51 938.79 500.11 942.87 503.25 C 943.65 502.50 944.44 501.76 945.25 501.03 C 946.42 501.52 947.60 502.03 948.79 502.53 C 948.93 500.00 949.12 497.46 949.43 494.95 C 949.66 495.81 950.14 497.55 950.38 498.42 C 950.43 498.75 950.53 499.40 950.59 499.72 C 952.50 499.91 954.41 500.10 956.35 500.27 C 956.00 501.42 955.72 502.60 955.77 503.81 C 956.60 503.07 957.43 502.32 958.27 501.57 C 960.90 504.82 966.57 504.60 968.43 500.63 C 969.97 501.79 971.55 502.91 973.16 504.01 C 973.31 503.59 973.61 502.77 973.76 502.35 C 975.96 502.28 978.50 502.06 979.73 504.35 C 984.68 503.54 988.86 500.81 993.36 498.84 C 987.16 505.72 977.97 509.09 969.07 510.81 C 964.29 511.79 959.49 512.78 954.61 512.88 C 954.54 512.67 954.42 512.25 954.35 512.04 L 954.45 511.55 C 949.20 510.57 952.99 516.23 949.85 517.91 C 947.88 519.84 945.78 517.85 944.68 516.11 C 944.31 517.36 943.94 518.62 943.59 519.88 C 938.49 520.19 933.27 518.82 928.30 520.61 C 928.11 521.23 927.73 522.47 927.55 523.09 Z" />
</g>
<g id="#004db7fe">
<path fill="#004db7" opacity="1.00" d=" M 771.12 505.62 C 774.10 500.62 778.64 496.17 784.00 493.73 C 781.38 497.21 777.42 499.36 774.90 502.94 C 776.61 504.11 778.64 504.52 780.69 504.57 C 781.33 505.16 781.97 505.77 782.63 506.38 C 783.21 505.86 783.80 505.34 784.41 504.84 C 785.71 504.83 787.02 504.76 788.32 504.93 C 790.28 506.68 790.82 509.50 791.42 511.96 C 790.57 515.20 790.49 518.66 791.84 521.78 C 792.03 524.03 792.62 526.22 793.58 528.28 C 792.26 527.12 791.00 525.91 789.79 524.66 C 785.17 525.29 780.39 524.96 775.92 526.54 C 775.20 526.07 774.49 525.61 773.80 525.15 C 773.39 525.89 772.99 526.63 772.61 527.38 C 771.92 526.91 771.25 526.46 770.58 526.01 C 770.56 527.34 770.53 528.67 770.48 530.00 C 768.35 527.13 768.22 523.38 768.10 519.95 C 767.87 514.96 770.11 510.39 771.12 505.62 Z" />
</g>
<g id="#004db6fe">
<path fill="#004db6" opacity="1.00" d=" M 812.43 500.41 C 813.03 502.86 813.26 505.38 813.31 507.91 C 814.33 505.86 815.70 504.01 817.43 502.50 C 817.83 502.85 818.64 503.55 819.04 503.89 C 819.38 503.56 820.07 502.91 820.41 502.58 C 820.98 503.19 821.56 503.80 822.16 504.43 C 825.61 502.85 829.34 503.59 832.83 504.64 C 833.49 503.84 834.15 503.06 834.83 502.28 C 835.18 508.60 835.81 514.95 835.06 521.27 C 834.78 521.74 834.21 522.69 833.92 523.16 C 834.08 524.68 834.37 526.20 834.65 527.72 C 832.72 528.14 830.78 528.49 828.81 528.60 C 827.91 527.42 827.01 526.24 826.11 525.07 C 823.63 526.78 824.24 530.28 822.78 532.69 C 819.02 526.45 810.70 528.23 804.56 528.01 C 804.81 527.46 805.08 526.91 805.36 526.38 C 804.91 526.18 804.00 525.78 803.54 525.58 C 803.87 524.84 804.22 524.10 804.58 523.38 C 812.57 518.49 810.72 508.25 812.43 500.41 Z" />
</g>
<g id="#0046adfe">
<path fill="#0046ad" opacity="1.00" d=" M 467.23 502.44 C 467.86 502.84 468.49 503.24 469.13 503.65 C 471.00 503.18 473.15 501.55 474.97 502.99 C 477.88 505.23 481.62 504.49 485.01 505.10 C 487.04 505.14 489.77 503.53 491.05 505.98 C 491.64 507.98 491.86 510.08 492.32 512.12 C 493.07 508.65 492.87 504.81 494.82 501.71 C 494.91 507.97 493.91 514.23 493.54 520.45 C 492.13 523.11 492.54 526.13 492.40 529.01 C 492.27 532.78 491.60 536.51 490.96 540.22 C 481.46 541.78 471.82 541.04 462.27 541.78 C 462.65 530.09 464.18 518.47 465.27 506.84 C 465.65 507.39 466.41 508.50 466.79 509.05 C 466.94 506.84 467.09 504.64 467.23 502.44 Z" />
</g>
<g id="#fb5c0efe">
<path fill="#fb5c0e" opacity="1.00" d=" M 1161.22 505.53 C 1161.58 505.57 1162.31 505.65 1162.68 505.69 C 1161.92 511.42 1161.46 517.24 1162.03 523.01 C 1162.35 526.51 1166.58 526.46 1168.91 527.99 C 1168.90 532.24 1168.85 536.49 1168.91 540.74 C 1161.36 543.42 1152.80 544.71 1145.09 541.99 C 1141.87 540.01 1138.84 537.08 1137.67 533.40 C 1130.56 538.17 1122.96 543.41 1113.98 542.96 C 1107.11 543.51 1100.03 540.80 1095.58 535.49 C 1093.58 532.94 1092.45 529.86 1091.33 526.85 C 1091.88 525.66 1092.18 524.14 1093.65 523.75 C 1093.62 524.76 1093.59 525.77 1093.58 526.79 C 1096.29 525.75 1099.12 524.12 1102.13 524.91 C 1103.26 525.18 1104.30 524.51 1105.39 524.24 C 1105.40 525.02 1105.43 525.82 1105.48 526.62 C 1106.60 526.58 1107.74 526.56 1108.88 526.54 C 1108.35 525.68 1107.83 524.82 1107.33 523.97 C 1108.52 523.61 1109.70 523.14 1110.98 523.02 C 1112.65 523.74 1113.62 525.45 1114.87 526.73 C 1115.33 524.62 1115.90 522.53 1116.52 520.46 C 1118.42 524.63 1123.94 526.08 1127.91 524.05 C 1131.93 522.63 1134.84 519.30 1136.80 515.64 C 1136.93 518.09 1136.08 520.41 1135.16 522.65 C 1138.15 523.16 1141.29 523.37 1143.95 525.00 C 1144.69 525.59 1145.54 525.15 1146.37 524.96 C 1146.35 524.00 1146.34 523.04 1146.36 522.10 C 1147.12 522.90 1147.90 523.71 1148.70 524.52 C 1149.23 523.97 1149.77 523.43 1150.33 522.89 C 1153.42 523.19 1156.50 522.61 1159.60 522.63 C 1159.21 522.20 1158.42 521.33 1158.03 520.89 C 1160.33 516.09 1160.09 510.64 1161.22 505.53 Z" />
</g>
<g id="#0044abfe">
<path fill="#0044ab" opacity="1.00" d=" M 767.47 527.93 C 766.72 520.44 766.35 511.95 771.12 505.62 C 770.11 510.39 767.87 514.96 768.10 519.95 C 768.22 523.38 768.35 527.13 770.48 530.00 C 770.53 528.67 770.56 527.34 770.58 526.01 C 771.25 526.46 771.92 526.91 772.61 527.38 C 772.99 526.63 773.39 525.89 773.80 525.15 C 774.49 525.61 775.20 526.07 775.92 526.54 C 780.39 524.96 785.17 525.29 789.79 524.66 C 791.00 525.91 792.26 527.12 793.58 528.28 C 792.62 526.22 792.03 524.03 791.84 521.78 C 794.86 525.85 800.54 525.92 804.58 523.38 C 804.22 524.10 803.87 524.84 803.54 525.58 C 804.00 525.78 804.91 526.18 805.36 526.38 C 805.08 526.91 804.81 527.46 804.56 528.01 C 810.70 528.23 819.02 526.45 822.78 532.69 C 824.24 530.28 823.63 526.78 826.11 525.07 C 827.01 526.24 827.91 527.42 828.81 528.60 C 830.78 528.49 832.72 528.14 834.65 527.72 C 834.37 526.20 834.08 524.68 833.92 523.16 C 834.21 522.69 834.78 521.74 835.06 521.27 C 835.19 521.77 835.45 522.75 835.58 523.25 C 836.12 526.12 838.94 527.30 841.48 527.89 C 840.92 532.30 842.23 537.32 840.33 541.33 C 832.69 543.51 823.59 545.13 816.56 540.41 C 814.06 538.96 812.90 536.18 811.68 533.72 C 809.29 534.78 807.63 536.91 805.39 538.19 C 800.47 541.16 794.79 543.25 788.98 542.91 C 779.65 543.45 769.49 537.41 767.47 527.93 Z" />
</g>
<g id="#fa580dfe">
<path fill="#fa580d" opacity="1.00" d=" M 1189.52 508.73 C 1192.52 509.14 1195.73 509.22 1198.27 511.12 C 1200.11 510.48 1201.61 511.59 1202.82 512.88 C 1202.03 516.83 1202.13 520.88 1203.06 524.79 C 1206.33 529.22 1212.04 526.43 1215.74 524.14 C 1215.87 529.07 1216.06 534.00 1215.89 538.93 C 1207.72 543.11 1198.02 544.31 1188.98 543.02 C 1182.22 542.21 1176.35 536.80 1175.09 530.10 C 1174.12 524.15 1174.07 518.05 1174.81 512.07 C 1175.04 513.23 1175.29 514.40 1175.58 515.57 C 1176.43 515.93 1177.30 516.30 1178.18 516.68 C 1179.15 515.63 1180.13 514.58 1181.12 513.54 C 1182.03 513.84 1182.94 514.14 1183.88 514.46 C 1184.23 513.59 1184.58 512.73 1184.95 511.88 C 1185.91 511.58 1186.87 511.27 1187.86 510.98 C 1188.39 510.22 1188.95 509.47 1189.52 508.73 Z" />
</g>
<g id="#0145aafd">
<path fill="#0145aa" opacity="1.00" d=" M 949.85 517.91 C 952.99 516.23 949.20 510.57 954.45 511.55 L 954.35 512.04 C 953.73 512.75 952.98 513.30 952.10 513.68 C 954.60 516.91 956.86 520.74 960.93 522.22 C 971.69 526.45 984.03 523.18 993.39 517.06 C 994.04 523.11 994.97 529.13 995.28 535.21 C 984.87 541.78 972.28 544.15 960.11 543.33 C 954.17 542.76 948.06 542.03 942.72 539.20 C 936.02 535.77 930.70 529.89 927.55 523.09 C 927.73 522.47 928.11 521.23 928.30 520.61 C 933.27 518.82 938.49 520.19 943.59 519.88 C 943.94 518.62 944.31 517.36 944.68 516.11 C 945.78 517.85 947.88 519.84 949.85 517.91 Z" />
</g>
<g id="#b3641ffe">
<path fill="#b3641f" opacity="1.00" d=" M 438.12 520.51 C 438.50 518.67 438.93 516.84 439.40 515.02 C 439.97 516.78 440.56 518.55 441.08 520.34 C 441.50 525.03 440.52 529.86 441.90 534.45 C 441.83 534.68 441.68 535.13 441.61 535.36 C 423.62 541.82 405.58 548.11 387.60 554.59 C 379.79 557.74 371.87 560.59 363.91 563.34 C 363.33 562.58 362.75 561.82 362.18 561.07 C 362.54 557.39 362.72 553.69 362.69 550.00 C 362.68 538.91 363.26 527.82 362.84 516.74 C 363.70 516.67 364.57 516.60 365.45 516.55 C 365.34 518.12 365.24 519.70 365.15 521.29 C 369.61 520.85 372.38 526.04 376.84 524.85 C 378.74 525.24 379.56 527.63 381.40 528.38 C 381.37 527.43 381.33 526.49 381.29 525.56 C 384.13 526.87 387.11 525.18 389.98 524.89 C 393.02 524.63 394.28 521.44 396.30 519.62 C 396.68 519.80 397.44 520.15 397.82 520.33 C 398.37 519.80 398.93 519.29 399.50 518.78 C 400.45 518.74 401.40 518.70 402.35 518.68 C 402.42 517.83 402.51 517.00 402.59 516.18 C 403.16 516.88 403.73 517.58 404.31 518.30 C 404.96 517.98 405.61 517.67 406.27 517.36 C 406.00 523.37 405.66 529.42 406.55 535.41 C 406.99 535.42 407.86 535.44 408.29 535.45 C 408.58 535.45 409.15 535.46 409.44 535.46 C 413.08 535.74 416.28 533.74 419.58 532.54 C 422.61 531.23 425.93 530.52 428.75 528.76 C 431.54 525.47 428.40 519.83 431.33 516.76 C 431.40 517.71 431.46 518.66 431.52 519.63 C 433.79 519.17 436.17 519.03 438.12 520.51 Z" />
</g>
<g id="#6b300cfe">
<path fill="#6b300c" opacity="1.00" d=" M 412.06 520.01 C 416.91 518.59 421.52 516.49 426.39 515.13 C 427.81 519.04 427.12 523.33 427.79 527.40 L 427.80 527.92 C 421.75 530.60 415.38 532.51 409.44 535.46 C 408.46 531.06 408.23 526.49 408.88 522.03 C 408.98 520.45 410.99 520.54 412.06 520.01 Z" />
</g>
<g id="#0040a6fe">
<path fill="#0040a6" opacity="1.00" d=" M 888.10 532.09 C 890.14 533.21 891.87 534.77 893.33 536.58 C 893.14 537.07 892.78 538.04 892.60 538.53 C 893.30 539.28 894.01 540.03 894.73 540.79 C 895.76 539.02 896.87 537.29 898.05 535.61 C 899.06 536.06 900.08 536.51 901.11 536.98 C 902.31 535.94 903.42 534.79 904.46 533.59 C 905.14 534.83 905.92 536.03 906.80 537.17 C 909.44 535.50 912.99 535.11 914.83 532.35 C 915.07 533.93 915.34 535.51 915.58 537.11 C 914.69 544.48 914.21 552.11 910.90 558.92 C 907.26 568.24 898.16 574.57 888.56 576.51 C 873.28 578.60 856.67 575.90 844.09 566.61 C 846.71 561.78 848.43 556.53 850.73 551.56 C 854.20 555.03 859.16 556.20 863.76 557.39 C 869.96 559.04 877.14 558.39 882.23 554.20 C 884.44 552.72 885.47 550.21 887.02 548.16 C 890.49 544.74 889.67 539.44 890.86 535.10 C 890.16 535.05 888.77 534.95 888.07 534.90 C 888.08 534.20 888.09 532.79 888.10 532.09 Z" />
</g>
<g id="#fcae00fd">
<path fill="#fcae00" opacity="1.00" d=" M 1067.12 547.24 C 1072.41 546.61 1078.30 546.85 1082.64 550.33 C 1088.38 553.73 1091.36 560.50 1091.25 567.03 C 1091.68 572.95 1089.47 578.64 1086.42 583.61 L 1086.19 583.61 C 1082.34 583.60 1078.52 584.60 1074.66 584.16 C 1071.34 583.73 1068.13 582.10 1064.73 582.65 C 1061.59 583.19 1058.27 582.27 1055.43 584.18 C 1052.18 578.37 1049.32 571.68 1050.56 564.90 C 1051.39 556.24 1058.63 548.78 1067.12 547.24 M 1066.41 558.42 C 1062.86 560.03 1061.96 564.42 1062.69 567.91 C 1063.77 574.00 1072.63 576.19 1076.78 571.85 C 1079.06 569.52 1079.63 565.61 1078.31 562.67 C 1076.48 558.23 1070.59 556.44 1066.41 558.42 Z" />
</g>
<g id="#0046aefc">
<path fill="#0046ae" opacity="1.00" d=" M 243.29 552.45 C 253.15 555.97 263.31 558.59 273.59 560.53 C 279.56 561.62 285.68 561.83 291.61 563.18 C 296.62 564.68 301.90 564.25 307.05 564.16 C 308.50 564.24 309.61 563.24 310.79 562.57 C 311.34 564.93 311.61 567.35 311.65 569.78 C 304.64 569.63 297.61 567.01 290.67 568.57 C 274.33 565.62 257.93 561.40 243.29 553.41 C 243.29 553.17 243.29 552.69 243.29 552.45 Z" />
</g>
<g id="#723c16fe">
<path fill="#723c16" opacity="1.00" d=" M 359.99 563.06 C 360.55 563.18 361.66 563.41 362.21 563.52 C 362.98 565.52 363.30 567.63 362.76 569.74 C 362.12 569.76 360.85 569.79 360.21 569.81 C 359.75 567.58 359.84 565.31 359.99 563.06 Z" />
</g>
<g id="#004eb6fd">
<path fill="#004eb6" opacity="1.00" d=" M 601.95 567.20 C 612.30 567.27 622.60 565.96 632.95 566.11 C 658.99 565.91 685.05 565.61 711.07 566.96 C 720.06 566.90 728.98 568.20 737.97 568.11 C 742.69 568.06 747.29 569.49 752.03 569.14 C 789.88 572.01 827.64 576.77 865.09 583.22 C 873.34 584.37 881.54 586.51 889.94 586.15 C 897.83 586.32 905.66 584.80 913.13 582.32 C 924.73 584.31 936.30 586.56 947.98 588.02 C 982.74 593.62 1017.86 597.82 1053.14 597.19 C 1054.93 597.08 1056.81 597.55 1057.97 599.03 C 1060.78 602.24 1064.15 604.90 1067.80 607.12 C 1069.44 607.65 1071.08 607.09 1072.60 606.42 C 1074.92 607.51 1077.27 608.71 1079.01 610.69 C 1075.81 611.59 1072.62 612.57 1069.55 613.84 C 1060.25 616.37 1050.55 616.91 1041.00 617.81 C 1029.00 617.79 1016.96 618.36 1005.02 617.00 C 996.64 616.47 988.30 615.41 979.99 614.34 C 961.53 612.70 943.24 609.34 924.94 606.37 C 900.78 601.97 876.59 597.73 852.40 593.47 C 830.27 590.32 808.22 586.44 786.02 583.89 C 775.68 583.02 765.39 581.42 755.03 580.63 C 742.16 579.12 729.24 578.61 716.35 577.48 C 709.94 576.53 703.44 577.27 697.04 576.41 C 690.22 575.62 683.35 576.10 676.51 575.74 C 662.37 574.49 648.17 575.03 633.99 574.90 C 623.31 575.03 612.60 574.55 601.95 575.51 C 595.65 576.23 589.31 575.65 583.01 576.25 C 575.39 577.13 567.69 576.63 560.10 577.78 C 554.04 577.66 548.11 579.15 542.05 578.90 C 527.78 580.86 513.36 581.44 499.14 583.71 C 485.98 584.49 473.03 587.43 459.95 589.10 C 454.02 590.06 448.06 590.82 442.14 591.81 C 440.41 592.08 438.67 591.91 436.97 591.58 C 463.29 584.62 490.20 580.13 517.08 575.92 C 538.34 572.90 559.66 570.36 581.06 568.74 C 587.97 567.60 595.03 568.44 601.95 567.20 M 916.96 593.06 C 918.53 595.89 922.38 595.63 925.15 596.27 C 930.96 597.15 937.49 599.86 943.05 596.95 C 941.79 596.08 940.56 595.11 939.03 594.88 C 932.73 593.29 926.29 592.32 919.82 591.80 C 918.86 592.21 917.90 592.63 916.96 593.06 M 956.55 601.57 C 959.76 603.30 963.47 603.28 966.98 603.93 C 972.25 604.44 977.56 605.62 982.87 604.92 C 983.68 601.93 980.19 601.21 978.03 601.06 C 972.00 600.71 966.03 599.76 960.01 599.41 C 958.33 599.13 957.26 600.23 956.55 601.57 M 998.20 604.27 C 997.24 606.94 1001.02 607.43 1002.89 607.78 C 1008.57 608.26 1014.28 608.60 1019.98 608.79 C 1022.18 608.50 1025.08 608.80 1026.58 606.88 C 1025.65 605.19 1023.73 604.95 1022.01 604.93 C 1014.09 604.80 1006.04 602.83 998.20 604.27 Z" />
</g>
<g id="#fd9508fe">
<path fill="#fd9508" opacity="1.00" d=" M 1055.43 584.18 C 1058.27 582.27 1061.59 583.19 1064.73 582.65 C 1068.13 582.10 1071.34 583.73 1074.66 584.16 C 1078.52 584.60 1082.34 583.60 1086.19 583.61 C 1082.46 590.46 1076.68 595.89 1070.99 601.10 C 1065.32 595.94 1059.61 590.66 1055.43 584.18 Z" />
</g>
<g id="#004cb1fc">
<path fill="#004cb1" opacity="1.00" d=" M 1072.60 606.42 C 1075.58 604.66 1078.05 602.13 1081.04 600.42 C 1085.90 599.56 1090.49 601.65 1094.75 603.71 C 1094.17 606.61 1091.04 607.52 1088.73 608.67 C 1082.56 611.00 1076.21 613.64 1069.55 613.84 C 1072.62 612.57 1075.81 611.59 1079.01 610.69 C 1077.27 608.71 1074.92 607.51 1072.60 606.42 Z" />
</g>
</svg>
